<svg xmlns="http://www.w3.org/2000/svg" width="16" height="16" fill="none">
   <path d="M2.202 6.678c-.388.34-.42.704-.42 1.3.235 1.64 3.04 2.669 5.85 2.679 2.795.01 5.64-.986 5.958-2.582.098-.578-.233-.945-.388-1.277-.3-.2-.527-.24-.718.025 0 1.242-2.145 2.248-4.79 2.249-2.647 0-4.793-1.007-4.794-2.249.001-.056-.102-.201-.2-.282-.158-.09-.386.03-.498.137z" fill="#c5c5c5" fill-opacity=".25" />
   <path d="M7.697 1.219c-1.368 0-2.61.258-3.552.707-.842.4-1.504.99-1.637 1.756-.043.148-.017.268-.03.423v1.5C1.577 6.141.915 6.844.823 7.711c-.027.13-.008.271-.011.414l.003 2.396c.003.038.014.114.026.188.155.972 1 1.746 2.125 2.281 1.246.593 2.902.94 4.732.94 1.108 0 2.139-.142 3.069-.373l-.457-.914c-.79.177-1.671.287-2.612.287-1.703 0-3.236-.334-4.304-.842-.891-.424-1.398-.935-1.541-1.416-.012-.064-.03-.127-.043-.19V8.266c-.016-.3-.018-.553.16-.852.11-.215.282-.413.511-.605-.002.09.019.183.028.27.128.77.791 1.366 1.638 1.769.943.448 2.183.705 3.551.705 1.368 0 2.613-.257 3.557-.705.853-.406 1.522-1.007 1.642-1.787.02-.095.015-.162.022-.252.355.299.575.61.639.978.024.184.019.277.035.49v1.25h1.002V8.082l-.024-.377c-.082-.752-.575-1.385-1.299-1.889-.12-.078-.236-.157-.351-.236V4.086c-.003-.136-.017-.236-.024-.352-.11-.79-.78-1.4-1.64-1.808-.944-.45-2.19-.707-3.559-.707zm3.125 1.61c.68.321 1.015.7 1.074 1.028.01.133.014.313.018.522.012.662.005 1.624 0 2.053-.004.429-.022.527-.049.623-.03.07-.074.144-.13.218-.63.691-1.493.887-2.297 1.112a9.299 9.299 0 01-3.27.054c-1.023-.169-1.619-.506-2.007-.762-.388-.256-.509-.398-.598-.558-.076-.1-.075-.224-.083-.33V4.15c.002-.178.004-.127.01-.282.057-.326.394-.71 1.084-1.039.766-.364 1.884-.61 3.123-.61 1.24.001 2.36.244 3.125.61z" style="line-height:normal;font-variant-ligatures:normal;font-variant-position:normal;font-variant-caps:normal;font-variant-numeric:normal;font-variant-alternates:normal;font-feature-settings:normal;text-indent:0;text-align:start;text-decoration-line:none;text-decoration-style:solid;text-decoration-color:#000;text-transform:none;text-orientation:mixed;white-space:normal;shape-padding:0;isolation:auto;mix-blend-mode:normal;solid-color:#000;solid-opacity:1" fill="#c5c5c5" />
   <path d="M4.574 2.829c-.655.31-.984.673-1.064.987a.775.775 0 00-.02.159c.001.99 1.9 1.793 4.242 1.793 2.076-.001 3.844-.638 4.18-1.504a10.7 10.7 0 00-.016-.407c-.06-.328-.395-.706-1.074-1.029-.765-.365-1.885-.61-3.124-.61-1.24.001-2.358.246-3.124.611z" fill="#c5c5c5" fill-opacity=".25" />
   <path d="M10.377 10.528h4.71l-2.356 4.697z" fill="#3178c6" paint-order="stroke fill markers" />
   <path d="M10.377 10.528h4.71l-2.356 4.697z" fill="#c5c5c5" paint-order="stroke fill markers" />
</svg>