<svg xmlns="http://www.w3.org/2000/svg" fill="none" height="16" width="16">
   <path d="M2.202 6.678c-.388.34-.42.704-.42 1.3.235 1.64 3.04 2.669 5.85 2.679 2.638.01 5.32-.877 5.88-2.318.243-.569-.135-1.166-.31-1.541-.3-.2-.527-.24-.718.025 0 1.242-2.145 2.248-4.79 2.249-2.647 0-4.793-1.007-4.794-2.249.001-.056-.102-.201-.2-.282-.158-.09-.386.03-.498.137z" fill="#c5c5c5" fill-opacity=".25" />
   <path style="line-height:normal;font-variant-ligatures:normal;font-variant-position:normal;font-variant-caps:normal;font-variant-numeric:normal;font-variant-alternates:normal;font-feature-settings:normal;text-indent:0;text-align:start;text-decoration-line:none;text-decoration-style:solid;text-decoration-color:#000;text-transform:none;text-orientation:mixed;white-space:normal;shape-padding:0;isolation:auto;mix-blend-mode:normal;solid-color:#000;solid-opacity:1" d="M4.145 1.926c-.842.4-1.504.99-1.637 1.756-.043.148-.018.268-.03.423v1.5C1.575 6.141.915 6.844.823 7.711c-.027.13-.01.271-.013.414l.004 2.396c.003.038.013.114.025.188.155.972 1 1.746 2.125 2.281 1.246.593 2.904.94 4.734.94s3.493-.347 4.74-.94c1.126-.535 1.972-1.31 2.126-2.283.033-.147.019-.251.029-.398V8.082c-.008-.155-.015-.256-.022-.377-.082-.752-.576-1.385-1.3-1.889a16.56 16.56 0 01-.352-.236V4.086c-.003-.136-.015-.236-.022-.352-.11-.79-.781-1.4-1.642-1.808-.944-.45-2.189-.707-3.558-.707-1.368 0-2.61.258-3.552.707zm6.677.903c.68.322 1.015.7 1.074 1.028.01.133.015.313.019.522.012.662.003 1.624-.002 2.053-.004.43-.02.527-.047.623-.03.071-.075.144-.132.218-.629.691-1.493.887-2.297 1.112a9.295 9.295 0 01-3.269.055c-1.023-.169-1.619-.507-2.007-.763-.388-.257-.508-.398-.598-.558-.075-.1-.075-.224-.083-.33V4.148c.002-.177.004-.125.01-.28.057-.326.394-.712 1.084-1.04.766-.364 1.884-.61 3.123-.61 1.24.001 2.36.245 3.125.611zM2.48 6.809c-.002.09.019.184.028.27.128.77.791 1.366 1.638 1.769.943.448 2.183.705 3.551.705 1.368 0 2.613-.257 3.557-.705.853-.406 1.522-1.007 1.642-1.787.02-.095.015-.162.022-.252.355.299.574.61.638.978.044.176.02.277.036.49v1.961c.017.204-.015.188-.031.383-.122.495-.631 1.028-1.553 1.467-1.068.508-2.609.842-4.31.842-1.703 0-3.237-.334-4.305-.842-.891-.424-1.398-.935-1.541-1.416-.012-.064-.03-.127-.043-.19V8.266c-.016-.3-.018-.553.16-.852a1.99 1.99 0 01.511-.605z" fill="#c5c5c5" />
   <path d="M4.574 2.829c-.655.31-.984.673-1.064.987a.775.775 0 00-.02.159c.001.99 1.9 1.793 4.242 1.793 2.076-.001 3.844-.638 4.18-1.504a10.7 10.7 0 00-.016-.407c-.06-.328-.395-.706-1.074-1.029-.765-.365-1.885-.61-3.124-.61-1.24.001-2.358.246-3.124.611z" fill="#c5c5c5" fill-opacity=".25" />
</svg>