<?xml version="1.0" encoding="UTF-8" standalone="no"?>
<svg
   xmlns:dc="http://purl.org/dc/elements/1.1/"
   xmlns:cc="http://creativecommons.org/ns#"
   xmlns:rdf="http://www.w3.org/1999/02/22-rdf-syntax-ns#"
   xmlns:svg="http://www.w3.org/2000/svg"
   xmlns="http://www.w3.org/2000/svg"
   fill="none"
   height="16"
   width="16"
   version="1.1"
   id="svg8">
  <metadata
     id="metadata14">
    <rdf:RDF>
      <cc:Work
         rdf:about="">
        <dc:format>image/svg+xml</dc:format>
        <dc:type
           rdf:resource="http://purl.org/dc/dcmitype/StillImage" />
        <dc:title></dc:title>
      </cc:Work>
    </rdf:RDF>
  </metadata>
  <defs
     id="defs12" />
  <path
     d="m 2.202,6.678 c -0.388,0.34 -0.42,0.704 -0.42,1.3 0.235,1.64 3.04,2.669 5.85,2.679 2.795,0.01 5.64,-0.986 5.958,-2.582 0.09788,-0.5782411 -0.233357,-0.9451916 -0.388,-1.277 -0.3,-0.2 -0.527,-0.24 -0.718,0.025 0,1.242 -2.145,2.248 -4.79,2.249 C 5.047,9.072 2.901,8.065 2.9,6.823 2.901,6.767 2.798,6.622 2.7,6.541 2.542,6.451 2.314,6.571 2.202,6.678 Z"
     id="path2"
     style="fill:#c5c5c5;fill-opacity:0.25" />
  <path
     id="path4"
     d="M 7.6972656 1.21875 C 6.3287656 1.21875 5.0865314 1.4767813 4.1445312 1.9257812 C 3.3025313 2.3257815 2.6408125 2.9156406 2.5078125 3.6816406 C 2.4648125 3.8296406 2.4905156 3.9504687 2.4785156 4.1054688 L 2.4785156 5.6054688 C 1.5755156 6.1414687 0.91426566 6.8439375 0.82226562 7.7109375 C 0.79526562 7.8409375 0.81354657 7.982 0.81054688 8.125 L 0.81445312 10.521484 C 0.81743013 10.559984 0.82784365 10.634984 0.83984375 10.708984 C 0.99484375 11.680984 1.8398434 12.455234 2.9648438 12.990234 C 4.2108435 13.583234 5.8672656 13.929684 7.6972656 13.929688 C 8.4449214 13.929688 9.142136 13.847528 9.8125 13.734375 L 9.3476562 12.804688 C 8.8211711 12.878058 8.2763096 12.929685 7.6972656 12.929688 C 5.9942656 12.929688 4.460578 12.595891 3.3925781 12.087891 C 2.5015781 11.663891 1.9945625 11.152875 1.8515625 10.671875 C 1.8395625 10.607875 1.8215938 10.545422 1.8085938 10.482422 L 1.8085938 8.265625 C 1.7925937 7.965625 1.7907498 7.7130625 1.96875 7.4140625 C 2.07875 7.1990625 2.2514686 7.0005936 2.4804688 6.8085938 C 2.4784688 6.8985937 2.4988125 6.992125 2.5078125 7.078125 C 2.6358125 7.848125 3.2994845 8.4446563 4.1464844 8.8476562 C 5.0894844 9.2956563 6.3292656 9.5527344 7.6972656 9.5527344 C 7.7040456 9.5527344 7.7100229 9.5507913 7.7167969 9.5507812 L 7.2089844 8.5410156 C 6.8539152 8.5244278 6.5033092 8.4948852 6.1679688 8.4394531 C 5.1448273 8.2703276 4.5483488 7.9340161 4.1601562 7.6777344 C 3.7719636 7.4214526 3.652192 7.2793064 3.5625 7.1191406 C 3.4875 7.0191406 3.4884688 6.8950625 3.4804688 6.7890625 L 3.4804688 4.1484375 C 3.4824687 3.9714375 3.4842344 4.0221875 3.4902344 3.8671875 C 3.5472344 3.5411875 3.8842187 3.156125 4.5742188 2.828125 C 5.3402188 2.464125 6.4577679 2.21825 7.6972656 2.21875 C 8.9367633 2.21925 10.057266 2.462125 10.822266 2.828125 C 11.502266 3.150125 11.837484 3.5294219 11.896484 3.8574219 C 11.906484 3.9904219 11.910063 4.1699063 11.914062 4.3789062 C 11.926063 5.0409062 11.918563 6.002602 11.914062 6.4316406 C 11.909562 6.8606793 11.891534 6.95891 11.865234 7.0546875 C 11.835234 7.1256875 11.791374 7.1994375 11.734375 7.2734375 C 11.673635 7.3401685 11.601968 7.3834475 11.537109 7.4414062 L 12.783203 7.4414062 C 12.833873 7.318796 12.876003 7.1936575 12.896484 7.0605469 C 12.916484 6.9655469 12.910969 6.8985935 12.917969 6.8085938 C 13.15582 7.0089251 13.327266 7.2166137 13.4375 7.4414062 L 14.503906 7.4414062 C 14.346286 6.8067614 13.907214 6.2589587 13.271484 5.8164062 C 13.151484 5.7384062 13.034922 5.6590781 12.919922 5.5800781 L 12.919922 4.0859375 C 12.916922 3.9499375 12.903484 3.850375 12.896484 3.734375 C 12.786484 2.944375 12.116859 2.3337812 11.255859 1.9257812 C 10.311856 1.4757813 9.0657656 1.21875 7.6972656 1.21875 z "
     style="line-height:normal;font-variant-ligatures:normal;font-variant-position:normal;font-variant-caps:normal;font-variant-numeric:normal;font-variant-alternates:normal;font-feature-settings:normal;text-indent:0;text-align:start;text-decoration:none;text-decoration-line:none;text-decoration-style:solid;text-decoration-color:#000000;text-transform:none;text-orientation:mixed;white-space:normal;shape-padding:0;isolation:auto;mix-blend-mode:normal;solid-color:#000000;solid-opacity:1;fill:#c5c5c5" />
  <path
     d="M 4.574,2.829 C 3.919,3.139 3.59,3.502 3.51,3.816 3.4977738,3.8688487 3.4911006,3.9219009 3.49,3.975 3.4913052,4.9655735 5.3902928,5.7682337 7.732,5.768 9.80766,5.7669185 11.576471,5.1304851 11.912,4.264 11.90925,4.1282441 11.903915,3.9925529 11.896,3.857 11.836,3.529 11.501,3.151 10.822,2.828 10.057,2.463 8.937,2.218 7.6975,2.2185 6.458,2.219 5.34,2.464 4.574,2.829 Z"
     id="path6"
     style="fill:#c5c5c5;fill-opacity:0.25" />
  <path
     style="fill:#c5c5c5;fill-opacity:1;stroke:none;stroke-width:0.94789338;stroke-linecap:round;stroke-linejoin:round;stroke-miterlimit:4;stroke-dasharray:none;paint-order:stroke fill markers"
     d="M 8.2853518,8.4422282 H 15.087067 L 11.684373,15.224678 Z"
     id="path817" />
</svg>
