<svg xmlns="http://www.w3.org/2000/svg" fill="none" height="16" width="16">
   <path d="M2.202 6.678c-.388.34-.42.704-.42 1.3.235 1.64 3.04 2.669 5.85 2.679 2.795.01 5.64-.986 5.958-2.582l.002-.027c.043-.616-.048-.946-.39-1.25-.3-.2-.527-.24-.718.025 0 1.242-2.145 2.248-4.79 2.249-2.647 0-4.793-1.007-4.794-2.249.001-.056-.102-.201-.2-.282-.158-.09-.386.03-.498.137z" fill="#c5c5c5" fill-opacity=".250"/>
   <path style="line-height:normal;font-variant-ligatures:normal;font-variant-position:normal;font-variant-caps:normal;font-variant-numeric:normal;font-variant-alternates:normal;font-feature-settings:normal;text-indent:0;text-align:start;text-decoration-line:none;text-decoration-style:solid;text-decoration-color:#000;text-transform:none;text-orientation:mixed;white-space:normal;shape-padding:0;isolation:auto;mix-blend-mode:normal;solid-color:#000;solid-opacity:1" d="M7.697 1.219c-1.368 0-2.61.258-3.552.707-.842.4-1.504.99-1.637 1.756-.043.148-.018.268-.03.423v1.5C1.575 6.141.915 6.844.823 7.711c-.027.13-.01.271-.013.414v2.357h.003c.004.077.014.153.026.227.155.972 1 1.746 2.125 2.281 1.246.593 2.904.94 4.734.94s3.493-.347 4.74-.94c1.126-.535 1.972-1.31 2.126-2.283.033-.147.019-.251.029-.398V8.082c.019-.139-.015-.256-.022-.377-.082-.752-.576-1.385-1.3-1.889-.12-.078-.237-.157-.352-.236V4.086c-.003-.136-.015-.236-.022-.352-.11-.79-.781-1.4-1.642-1.808-.944-.45-2.189-.707-3.557-.707zm0 1c1.24 0 2.36.244 3.125.61.68.322 1.015.7 1.074 1.028.01.133.015.313.019.522.012.662.003 1.624.003 2.355l-.002.028a1.505 1.505 0 01-.05.293c-.03.071-.075.144-.132.218-.629.691-1.493.887-2.297 1.112a8.893 8.893 0 01-3.355.017c-.04-.007-.084-.01-.123-.017h-.002c-.812-.114-1.408-.452-2.039-.85h-.002a1.421 1.421 0 01-.353-.416c-.075-.1-.075-.224-.083-.33V4.148c.002-.177.004-.125.01-.28.057-.326.394-.712 1.084-1.04.766-.364 1.884-.61 3.123-.61zM2.48 6.809c-.002.09.019.184.028.27.128.77.791 1.366 1.638 1.769.943.448 2.183.705 3.551.705 1.368 0 2.613-.257 3.557-.705.853-.406 1.522-1.007 1.642-1.787.02-.095.015-.162.022-.252.355.299.574.61.638.978.044.176.02.277.036.49v1.961c.017.204-.015.188-.031.383-.122.495-.631 1.028-1.553 1.467-1.068.508-2.609.842-4.31.842-1.703 0-3.237-.334-4.305-.842-.891-.424-1.398-.935-1.541-1.416-.012-.064-.03-.127-.043-.19V8.266c-.016-.3-.018-.553.16-.852.11-.215.282-.413.511-.605z" fill="#c5c5c5"/>
   <path d="M7.697 2.219c-1.239 0-2.357.245-3.123.61-.655.31-.984.673-1.064.987a4.241 1.794 0 00-.02.159 4.241 1.794 0 004.242 1.793 4.241 1.794 0 004.18-1.504 10.7 10.7 0 00-.016-.407c-.06-.328-.395-.706-1.074-1.029-.765-.365-1.885-.61-3.125-.61z" fill="#c5c5c5" fill-opacity=".250"/>
</svg>
