<?xml version="1.0" encoding="UTF-8" standalone="no"?>
<svg
   xmlns:dc="http://purl.org/dc/elements/1.1/"
   xmlns:cc="http://creativecommons.org/ns#"
   xmlns:rdf="http://www.w3.org/1999/02/22-rdf-syntax-ns#"
   xmlns:svg="http://www.w3.org/2000/svg"
   xmlns="http://www.w3.org/2000/svg"
   xmlns:sodipodi="http://sodipodi.sourceforge.net/DTD/sodipodi-0.dtd"
   xmlns:inkscape="http://www.inkscape.org/namespaces/inkscape"
   width="16"
   height="16"
   version="1.1"
   id="svg8"
   sodipodi:docname="connect2.svg"
   inkscape:version="0.92.3 (2405546, 2018-03-11)">
  <sodipodi:namedview
     pagecolor="#ffffff"
     bordercolor="#666666"
     borderopacity="1"
     objecttolerance="10"
     gridtolerance="10"
     guidetolerance="10"
     inkscape:pageopacity="0"
     inkscape:pageshadow="2"
     inkscape:window-width="1920"
     inkscape:window-height="1052"
     id="namedview7"
     showgrid="false"
     inkscape:zoom="20.85965"
     inkscape:cx="28.586326"
     inkscape:cy="6.0367501"
     inkscape:window-x="2560"
     inkscape:window-y="0"
     inkscape:window-maximized="1"
     inkscape:current-layer="svg8" />
  <metadata
     id="metadata14">
    <rdf:RDF>
      <cc:Work
         rdf:about="">
        <dc:format>image/svg+xml</dc:format>
        <dc:type
           rdf:resource="http://purl.org/dc/dcmitype/StillImage" />
        <dc:title />
      </cc:Work>
    </rdf:RDF>
  </metadata>
  <defs
     id="defs12" />
  <style
     type="text/css"
     id="style2">.icon-canvas-transparent{opacity:0;fill:#F6F6F6;} .icon-vs-out{opacity:0;fill:#F6F6F6;} .icon-vs-fg{opacity:0;fill:#F0EFF1;} .icon-folder{fill:#C5C5C5;}</style>
  <path
     style="fill:#c5c5c5;fill-opacity:1;stroke:none;stroke-width:0.00114699;stroke-miterlimit:4;stroke-dasharray:none"
     d="M 14.142578 1.2695312 L 11.197266 4.2148438 C 10.915284 4.0888766 10.391848 3.8321775 10.046875 3.8457031 C 9.3566826 3.8727662 8.7795155 4.3718382 8.0683594 4.9101562 C 7.8543106 5.0814967 7.6968571 5.2113484 7.53125 5.3769531 C 7.4277347 5.4804673 7.4071253 5.6258816 7.484375 5.703125 L 7.7265625 5.9453125 L 7.8066406 6.0253906 L 7.8085938 6.0273438 L 7.8105469 6.0273438 C 7.8982329 6.1125087 8.0492392 6.1026678 8.1757812 6.0117188 C 8.2016082 5.9913668 8.2218548 5.9788654 8.2460938 5.9589844 C 8.3752773 5.8612424 8.5356353 5.8481491 8.625 5.9375 L 8.7050781 6.0175781 C 8.7898051 6.1023031 8.7834037 6.2498192 8.6992188 6.375 C 8.6650477 6.416966 8.6402231 6.4517723 8.6113281 6.4941406 C 8.5372301 6.615661 8.5361335 6.7528878 8.6171875 6.8339844 L 8.6972656 6.9160156 L 9.3242188 7.5429688 L 9.3671875 7.5859375 L 9.4042969 7.6230469 C 9.4806249 7.6993749 9.6085809 7.702343 9.7246094 7.640625 C 9.7797234 7.610696 9.8198961 7.5734244 9.8691406 7.5371094 C 9.9932197 7.4561574 10.137115 7.4516083 10.220703 7.5351562 L 10.300781 7.6152344 C 10.387451 7.7019084 10.380786 7.85545 10.291016 7.9824219 C 10.267446 8.0125359 10.247339 8.0373373 10.224609 8.0664062 C 10.152689 8.1678437 10.132845 8.2855033 10.171875 8.3730469 C 10.189295 8.4099599 10.210991 8.4297353 10.238281 8.4570312 L 10.294922 8.5117188 L 10.537109 8.7558594 C 10.614349 8.8331014 10.759767 8.8124994 10.863281 8.7089844 L 10.896484 8.6738281 C 11.060427 8.5120545 11.212904 8.3233326 11.337891 8.1582031 C 11.916935 7.3884974 12.416518 6.7441153 12.394531 6.015625 C 12.386154 5.7373678 12.129477 5.2739794 12.025391 5.0410156 L 14.96875 2.0976562 L 14.142578 1.2695312 z M 6.3105469 6.6796875 C 6.2515687 6.688244 6.1884753 6.717779 6.1367188 6.7695312 C 5.9711139 6.9351394 5.8432155 7.0945449 5.671875 7.3085938 C 5.1335541 8.0197488 4.6325307 8.5949654 4.6054688 9.2851562 C 4.5919242 9.6301305 4.8486427 10.155517 4.9746094 10.4375 L 1.9179688 13.492188 L 2.7460938 14.320312 L 5.8027344 11.265625 C 6.0357009 11.369717 6.4971362 11.626367 6.7753906 11.634766 C 7.5038838 11.656756 8.1502151 11.155216 8.9199219 10.576172 C 9.0850535 10.451183 9.2737747 10.300653 9.4355469 10.136719 L 9.46875 10.101562 C 9.5722657 9.998043 9.5928697 9.8526338 9.515625 9.7753906 L 9.0117188 9.2695312 L 9.2636719 9.0175781 C 9.3989065 8.8823446 9.4251382 8.692712 9.3242188 8.5917969 L 9.2441406 8.5117188 C 9.1432254 8.4108035 8.9535941 8.4389907 8.8183594 8.5742188 L 8.5664062 8.8261719 L 7.4140625 7.6738281 L 7.6660156 7.4199219 C 7.8012502 7.2846884 7.8294231 7.0950536 7.7285156 6.9941406 L 7.6484375 6.9140625 C 7.5475223 6.8131473 7.3559366 6.8413345 7.2207031 6.9765625 L 6.96875 7.2285156 L 6.4628906 6.7226562 C 6.4242696 6.6840352 6.369525 6.671131 6.3105469 6.6796875 z "
     id="path1019" />
</svg>
