<svg xmlns="http://www.w3.org/2000/svg" height="16" width="16">
  <path
     d="m 13.778188,1.0844861 -2.005471,2.00278 C 11.384073,2.9136509 10.662643,2.5598535 10.187182,2.5784953 9.2359184,2.6157952 8.4404336,3.3036448 7.4602775,4.0455855 7.1652632,4.2817368 6.9482517,4.4607059 6.7200025,4.6889518 6.5773318,4.831621 6.5489268,5.0320393 6.6553967,5.1385006 l 0.3337967,0.3337967 0.1103682,0.1103682 0.00269,0.00269 h 0.00269 c 0.1208539,0.1173792 0.3289797,0.1038159 0.5033869,-0.021535 0.035597,-0.02805 0.063501,-0.045281 0.096909,-0.072682 C 7.8832854,5.3564249 8.1043002,5.3383789 8.2274678,5.4615275 L 8.337836,5.5718957 C 8.4546116,5.6886685 8.4457888,5.8919837 8.329756,6.064515 8.282659,6.122355 8.248445,6.170327 8.20862,6.2287214 8.1064939,6.3962078 8.1049825,6.5853417 8.2167,6.6971136 l 0.1103683,0.1130601 0.8641028,0.8641029 0.059222,0.059222 0.051146,0.051146 c 0.1051996,0.1051996 0.2815562,0.1092904 0.4414732,0.024227 0.07596,-0.04125 0.1313294,-0.09262 0.1992014,-0.1426711 0.1710133,-0.1115727 0.3693383,-0.1178424 0.4845433,-0.00269 l 0.110369,0.1103684 c 0.119453,0.119459 0.110267,0.3310789 -0.01346,0.5060788 -0.03249,0.041505 -0.0602,0.075688 -0.09153,0.115752 -0.09912,0.1398072 -0.126474,0.3019722 -0.07268,0.4226298 0.02401,0.050876 0.05391,0.078131 0.09153,0.115752 l 0.07806,0.075373 0.333796,0.3364886 c 0.106457,0.1064594 0.30688,0.078064 0.449549,-0.064606 l 0.04576,-0.048454 c 0.225955,-0.2229657 0.436108,-0.483073 0.608372,-0.710664 0.798072,-1.0608525 1.486626,-1.9489768 1.456322,-2.9530239 -0.01155,-0.38351 -0.365313,-1.0221785 -0.50877,-1.3432625 l 2.00278,-2.0027802 z M 5.0375596,6.484455 c -0.081287,0.011793 -0.1682461,0.0525 -0.2395799,0.1238277 -0.2282462,0.2282508 -0.4045231,0.4479525 -0.6406744,0.742967 -0.7419447,0.9801546 -1.432484,1.7729511 -1.4697821,2.7242113 -0.018668,0.475464 0.3351562,1.199582 0.5087707,1.588227 l -2.1131485,2.113148 1.1413693,1.138678 2.1131486,-2.110457 c 0.3210878,0.143466 0.9570643,0.497195 1.3405705,0.508771 1.0040511,0.03031 1.8948619,-0.660943 2.9557159,-1.459015 0.2275939,-0.172267 0.4877002,-0.379736 0.710664,-0.605679 l 0.045762,-0.04845 c 0.1426716,-0.14268 0.1710696,-0.343092 0.064606,-0.449553 L 8.7604695,10.053926 9.1077257,9.7066698 C 9.2941138,9.5202833 9.3302678,9.2589207 9.1911749,9.1198338 L 9.0808065,9.0094655 C 8.9417194,8.8703782 8.6803587,8.9092272 8.4939705,9.0956066 L 8.1467141,9.4428628 6.558488,7.8546366 6.9057442,7.5046885 C 7.0921323,7.3183019 7.1309618,7.0569364 6.9918853,6.9178523 L 6.8815171,6.8074841 C 6.74243,6.6683969 6.4783756,6.7072462 6.291989,6.8936251 L 5.9447328,7.2408813 5.2475284,6.5436769 C 5.1942984,6.4904469 5.1188466,6.4726619 5.0375596,6.484455 Z"
     style="fill:#c5c5c5;fill-opacity:1;stroke:none;stroke-width:0.0;stroke-miterlimit:4;stroke-dasharray:none" />
</svg>
