<?xml version="1.0" encoding="UTF-8" standalone="no"?>
<svg
   xmlns:dc="http://purl.org/dc/elements/1.1/"
   xmlns:cc="http://creativecommons.org/ns#"
   xmlns:rdf="http://www.w3.org/1999/02/22-rdf-syntax-ns#"
   xmlns:svg="http://www.w3.org/2000/svg"
   xmlns="http://www.w3.org/2000/svg"
   width="16"
   height="16"
   version="1.1"
   id="svg8">
  <metadata
     id="metadata14">
    <rdf:RDF>
      <cc:Work
         rdf:about="">
        <dc:format>image/svg+xml</dc:format>
        <dc:type
           rdf:resource="http://purl.org/dc/dcmitype/StillImage" />
        <dc:title></dc:title>
      </cc:Work>
    </rdf:RDF>
  </metadata>
  <defs
     id="defs12" />
  <style
     type="text/css"
     id="style2">.icon-canvas-transparent{opacity:0;fill:#F6F6F6;} .icon-vs-out{opacity:0;fill:#F6F6F6;} .icon-vs-fg{opacity:0;fill:#F0EFF1;} .icon-folder{fill:#C5C5C5;}</style>
  <path
     style="fill:#c5c5c5;fill-opacity:1;stroke:none;stroke-width:0.03764902;stroke-miterlimit:4;stroke-dasharray:none"
     d="m 5.8840182,1.212004 c -0.2895703,0 -0.5232532,0.2336826 -0.5232532,0.5232527 V 4.7756851 H 3.3251211 c -0.308691,0 -0.5580202,0.249329 -0.5580202,0.5580203 v 0.7561958 c 0,0.3086914 0.2493292,0.5562819 0.5580202,0.5562819 h 0.2207745 v 0.7405504 c 0,2.0155121 1.4514384,3.6709475 3.3689826,4.0034915 v 2.319 c 0,0.28957 0.2319442,0.523253 0.5215143,0.523253 h 0.3633217 c 0.28957,0 0.5232526,-0.233682 0.5232526,-0.523253 v -2.319 C 10.239796,11.057097 11.69195,9.4017409 11.69195,7.3867335 V 6.6461831 h 0.219036 c 0.308691,0 0.55802,-0.2475905 0.55802,-0.5562819 V 5.3337054 c 0,-0.3086913 -0.249329,-0.5580203 -0.55802,-0.5580203 H 9.875341 V 1.7352567 c 0,-0.2895701 -0.2319441,-0.5232527 -0.5215142,-0.5232527 -0.2895701,0 -0.5232527,0.2336826 -0.5232527,0.5232527 V 4.7756851 H 6.4055325 V 1.7352567 c 0,-0.2895701 -0.2319442,-0.5232527 -0.5215143,-0.5232527 z m 1.7314275,5.5350053 a 1.4331331,1.4331331 0 0 1 1.432426,1.4324262 1.4331331,1.4331331 0 0 1 -1.432426,1.432426 1.4331331,1.4331331 0 0 1 -1.4341643,-1.432426 1.4331331,1.4331331 0 0 1 1.4341643,-1.4324262 z"
     id="rect846" />
</svg>
