<svg xmlns="http://www.w3.org/2000/svg" height="16" width="16">
    <path fill="#c5c5c5" d="M13.778 1.084l-2.005 2.003c-.389-.173-1.11-.527-1.586-.509-.951.038-1.747.726-2.727 1.468a8.468 8.468 0 00-.74.643c-.143.143-.171.343-.065.45l.334.333.11.11.003.003h.003c.12.118.329.104.503-.021.036-.028.064-.045.097-.073.178-.135.4-.153.522-.03l.11.11c.118.118.109.321-.007.494a2.246 2.246 0 00-.121.164c-.103.167-.104.356.008.468l.11.113.864.864.06.06.05.05c.106.106.282.11.442.025.076-.041.131-.093.2-.143.17-.111.369-.118.484-.002l.11.11c.12.12.11.331-.013.506l-.092.116c-.099.14-.126.302-.073.422.024.051.054.078.092.116l.078.075.334.337c.106.106.307.078.45-.065l.045-.048c.226-.223.436-.483.609-.71.798-1.062 1.486-1.95 1.456-2.954-.012-.383-.365-1.022-.509-1.343l2.003-2.003zm-8.74 5.4a.432.432 0 00-.24.124 8.521 8.521 0 00-.64.743c-.743.98-1.433 1.773-1.47 2.724-.02.476.335 1.2.508 1.589l-2.113 2.113 1.142 1.139 2.113-2.11c.32.143.957.496 1.34.508 1.004.03 1.895-.661 2.956-1.46.228-.171.488-.379.71-.605l.046-.048c.143-.143.171-.343.065-.45l-.695-.697.348-.347c.186-.187.222-.448.083-.587l-.11-.11c-.14-.14-.4-.1-.587.086l-.347.347-1.589-1.588.348-.35c.186-.187.225-.448.086-.587l-.11-.11c-.14-.14-.404-.1-.59.086l-.347.347-.697-.697a.239.239 0 00-.21-.06z"/>
</svg>
