<svg xmlns="http://www.w3.org/2000/svg" height="16" width="16">
   <path d="M12.612 10.466l2.34 2.34-1.3 1.299-2.339-2.34-2.34 2.34-1.3-1.299 2.34-2.34-2.34-2.34 1.299-1.3 2.341 2.34 2.34-2.34 1.3 1.3zM3 12.5h4v1H3zm5-6H3v1h5zm-2.5 2H3v1h2.5zm-2.5 3h2.5v-1H3zm4-11c-1.11 0-2 .89-2 2H2c-.55 0-1 .45-1 1v11c0 .55.45 1 1 1h10c.28-.02.51-.12.7-.3.19-.18.28-.42.3-.7v-.184l-1-1V14.5H2v-9h10v2.115l1-1V3.5c0-.55-.45-1-1-1H9c0-1.11-.89-2-2-2zm0 1c.55 0 1 .45 1 1s.45 1 1 1h1c.55 0 1 .45 1 1H3c0-.55.45-1 1-1h1c.55 0 1-.45 1-1s.45-1 1-1z" fill="#c5c5c5"/>
</svg>