<?xml version="1.0" encoding="UTF-8" standalone="no"?>
<svg
   xmlns:dc="http://purl.org/dc/elements/1.1/"
   xmlns:cc="http://creativecommons.org/ns#"
   xmlns:rdf="http://www.w3.org/1999/02/22-rdf-syntax-ns#"
   xmlns:svg="http://www.w3.org/2000/svg"
   xmlns="http://www.w3.org/2000/svg"
   id="svg4572"
   width="16"
   height="16"
   fill="none"
   version="1.1"
   viewBox="0 0 16 16">
  <metadata
     id="metadata4578">
    <rdf:RDF>
      <cc:Work
         rdf:about="">
        <dc:format>
               image/svg+xml
            </dc:format>
        <dc:type
           rdf:resource="http://purl.org/dc/dcmitype/StillImage" />
        <dc:title></dc:title>
      </cc:Work>
    </rdf:RDF>
  </metadata>
  <defs
     id="defs4576" />
  <path
     id="rect6378"
     d="M 2.5335052,0.71303604 V 9.9976124 L 1.0177598,10.140953 c -0.18438891,0.01749 -0.31941006,0.179555 -0.30192922,0.363942 0.0175084,0.184387 0.18057322,0.319411 0.36495812,0.301929 l 1.4527165,-0.138258 v 0.589626 l -1.4832144,0.287697 c -0.18181176,0.0353 -0.29961314,0.210587 -0.26431505,0.392406 0.0352922,0.18182 0.20956999,0.299613 0.39138965,0.264315 l 1.3561398,-0.263299 v 3.347653 H 13.919387 v -4.023689 h 1.031845 c 0.185213,0 0.33446,-0.149246 0.33446,-0.33446 0,-0.185214 -0.149246,-0.334461 -0.33446,-0.334461 H 13.919387 V 9.9528819 l 1.05421,-0.1067426 C 15.15786,9.8273916 15.291227,9.6634108 15.272476,9.479148 15.253729,9.294885 15.090765,9.1625346 14.906502,9.1812851 L 13.919387,9.2819288 V 0.71303604 c -3.795294,0 -7.5905879,0 -11.3858818,0 z M 3.4382761,1.6178069 h 9.5763399 v 2.4103504 c -0.02401,-0.072748 -0.04809,-0.1449852 -0.08743,-0.2236512 -0.315519,-0.6310232 -0.738221,-0.877752 -1.276845,-0.8569908 -0.179542,0.00692 -0.367654,0.039524 -0.561162,0.08946 -0.330636,0.085325 -0.671354,0.6330312 -0.780746,0.9190034 -0.152486,0.3986307 -0.112787,0.7039842 -0.08946,1.0816586 0.01479,0.2396467 0.399714,0.5932683 0.691286,0.5367631 0.452904,-0.08777 1.179817,-0.4812967 1.756679,-0.7644807 0.179065,-0.087904 0.288829,-0.1893856 0.347676,-0.3029458 v 4.8674647 l -2.426617,0.2460162 c -0.184263,0.018748 -0.317629,0.1817135 -0.298879,0.3659747 0.01875,0.1842625 0.181712,0.3176305 0.365975,0.2988795 l 2.359521,-0.239916 v 0.548961 h -2.404251 c -0.185213,0 -0.33446,0.149247 -0.33446,0.334461 0,0.185213 0.149246,0.33446 0.33446,0.33446 h 2.404251 v 3.118918 H 3.4382761 v -0.676036 c 0.1171684,0.08655 0.3478875,0.149344 0.4361199,0.108776 0.3298029,-0.151644 0.3563865,-0.459172 0.7482152,-0.828526 0.1819042,-0.17147 0.322725,-0.420568 0.5987752,-0.562178 0.2464931,-0.126448 0.727016,-0.0518 1.4516999,-0.207386 0.594584,-0.12765 1.0444494,-0.124011 1.5452269,-0.127074 0.7994439,-0.0049 1.4198258,0.0221 2.4245828,0.212469 0.706605,0.133878 0.890429,0.456463 1.031845,0.775663 0.110006,0.248303 0.06939,0.352694 0.247033,0.558112 0.13752,0.159015 0.504829,0.352997 0.715684,0.168755 0.167935,-0.146748 3.64e-4,-0.501558 0.181971,-0.682138 0.204742,-0.203576 0.280573,-0.44139 0.0071,-0.744149 C 11.923906,11.893669 11.284754,11.79212 10.166111,11.641449 9.9682463,11.622144 9.8512468,11.39655 9.7055929,11.261242 9.3607155,10.940859 9.0312848,10.778101 8.6036019,10.729562 8.61993,10.674394 8.63974,10.525484 8.6706972,10.485579 9.3663416,9.588805 10.329532,9.0190487 11.062749,8.8519081 c 0.273189,-0.062275 0.157248,-0.3916286 0.09251,-0.431037 -0.144841,-0.088172 -0.330598,-0.093183 -0.500165,-0.092511 -0.317963,0.00125 -0.632049,0.079544 -0.9495011,0.097593 -0.9515839,0.054105 -1.7825272,0.082235 -2.6502672,0.0061 -0.2866656,-0.025151 -0.5755786,-0.057867 -0.8630905,-0.045746 -0.4633069,0.019534 -0.5544028,0.2538002 -0.431037,0.5977583 0.045839,0.1278034 0.5791133,0.135269 0.8407252,0.2714312 0.4231681,0.2202474 0.6312489,0.5097684 1.1030075,1.0969084 0.057392,0.07143 0.1252695,0.136848 0.1667211,0.218568 0.023036,0.04541 0.023036,0.09935 0.029481,0.150456 -0.2290496,0.0095 -0.4560295,0.03117 -0.6679038,0.114875 -0.15382,0.06077 -0.242453,0.225158 -0.3568254,0.344626 -0.3627368,0.378892 -0.2830139,0.402075 -1.242281,0.552011 -0.2204113,0.03445 -0.4578404,0.03353 -0.6780699,0.06913 -0.4130522,0.06676 -1.0557231,0.09709 -1.3744386,0.4717 -0.062302,0.07323 -0.1010451,0.140128 -0.1433406,0.208402 v -0.718732 l 2.4754149,-0.479834 c 0.1818201,-0.0353 0.2996132,-0.210588 0.2643153,-0.392406 -0.0353,-0.18182 -0.2105872,-0.299614 -0.3924062,-0.264315 L 3.4382761,11.082321 V 10.583172 L 5.8831908,10.351388 C 6.0675777,10.333899 6.2015855,10.170817 6.1841035,9.9864295 6.1666148,9.8020428 6.0045481,9.668035 5.8201618,9.685517 L 3.4382761,9.9112015 V 4.2924725 C 3.6379425,4.3860795 3.9544406,4.4514802 4.0949975,4.5130739 4.5371144,4.706815 4.8317439,4.996672 5.1197268,5.1474301 5.2990697,5.2413163 5.9859491,5.4293422 6.1363235,5.2938198 6.358173,5.0938819 6.3980764,4.1775593 6.2095184,3.7567262 6.0471507,3.394346 5.8651194,3.1500612 5.5588965,2.9027849 5.4692516,2.8303966 5.1298047,2.7499534 4.87981,2.7543618 4.6298154,2.7587684 4.3228839,2.8073689 4.1681924,2.8458559 3.8537123,2.9240968 3.6958917,3.1039986 3.4850396,3.3500878 c -0.011016,0.012807 -0.03075,0.049944 -0.046763,0.076244 z"
     style="fill:#c5c5c5;stroke:none;stroke-width:0.0897117;stroke-miterlimit:4;stroke-dasharray:none" />
</svg>
