<?xml version="1.0" encoding="UTF-8" standalone="no"?>
<svg
   xmlns:dc="http://purl.org/dc/elements/1.1/"
   xmlns:cc="http://creativecommons.org/ns#"
   xmlns:rdf="http://www.w3.org/1999/02/22-rdf-syntax-ns#"
   xmlns:svg="http://www.w3.org/2000/svg"
   xmlns="http://www.w3.org/2000/svg"
   id="svg4572"
   width="16"
   height="16"
   fill="none"
   version="1.1"
   viewBox="0 0 16 16">
  <metadata
     id="metadata4578">
    <rdf:RDF>
      <cc:Work
         rdf:about="">
        <dc:format>
               image/svg+xml
            </dc:format>
        <dc:type
           rdf:resource="http://purl.org/dc/dcmitype/StillImage" />
        <dc:title></dc:title>
      </cc:Work>
    </rdf:RDF>
  </metadata>
  <defs
     id="defs4576" />
  <path
     id="rect6378"
     d="M 7.9082031 0.71289062 C 8.3851777 0.93756662 8.8193952 1.2435677 9.1914062 1.6171875 L 13.013672 1.6171875 L 13.013672 4.0273438 C 12.989662 3.9545958 12.967074 3.8833535 12.927734 3.8046875 C 12.612215 3.1736643 12.189015 2.9265044 11.650391 2.9472656 C 11.470849 2.9541856 11.283352 2.9871734 11.089844 3.0371094 C 10.803418 3.1110254 10.535242 3.5153462 10.390625 3.8125 C 10.466765 4.1410975 10.506073 4.4771537 10.507812 4.8144531 C 10.506312 5.017052 10.491351 5.2193266 10.462891 5.4199219 C 10.597073 5.5302537 10.765131 5.6023239 10.910156 5.5742188 C 11.36306 5.4864488 12.089154 5.0937309 12.666016 4.8105469 C 12.845081 4.7226429 12.954825 4.6213727 13.013672 4.5078125 L 13.013672 9.375 L 10.587891 9.6210938 C 10.403628 9.6398418 10.270312 9.8020669 10.289062 9.9863281 C 10.307813 10.170591 10.470034 10.303907 10.654297 10.285156 L 13.013672 10.044922 L 13.013672 10.59375 L 10.611328 10.59375 C 10.426115 10.59375 10.275391 10.744473 10.275391 10.929688 C 10.275391 11.114899 10.426114 11.263672 10.611328 11.263672 L 13.013672 11.263672 L 13.013672 14.382812 L 3.4375 14.382812 L 3.4375 13.707031 C 3.5546684 13.793581 3.7867676 13.855021 3.875 13.814453 C 4.2048029 13.662809 4.2312182 13.355682 4.6230469 12.986328 C 4.8049511 12.814858 4.9446529 12.565438 5.2207031 12.423828 C 5.4671962 12.29738 5.9491442 12.372378 6.6738281 12.216797 C 7.2684121 12.089147 7.7179725 12.092907 8.21875 12.089844 C 9.0181939 12.084944 9.6378212 12.112364 10.642578 12.302734 C 11.349183 12.436612 11.532412 12.758925 11.673828 13.078125 C 11.783834 13.326428 11.744228 13.431301 11.921875 13.636719 C 12.059395 13.795734 12.425864 13.988929 12.636719 13.804688 C 12.804654 13.657939 12.63872 13.303627 12.820312 13.123047 C 13.025054 12.919471 13.099605 12.681665 12.826172 12.378906 C 11.923549 11.894094 11.284659 11.791296 10.166016 11.640625 C 9.9681105 11.62132 9.850732 11.397027 9.7050781 11.261719 C 9.3602007 10.941336 9.0311985 10.779008 8.6035156 10.730469 C 8.6198437 10.675301 8.6389647 10.526233 8.6699219 10.486328 C 9.3655663 9.5895542 10.329283 9.0187031 11.0625 8.8515625 C 11.335689 8.7892875 11.219032 8.4593303 11.154297 8.4199219 C 11.009456 8.3317499 10.823864 8.327453 10.654297 8.328125 C 10.336334 8.329375 10.02253 8.4077322 9.7050781 8.4257812 C 9.3369162 8.4467143 8.9974103 8.4581741 8.65625 8.4667969 C 8.069653 8.8989447 7.3877097 9.183646 6.6679688 9.296875 C 7.0448264 9.5126627 7.2605442 9.7983063 7.7050781 10.351562 C 7.7624701 10.422992 7.8296421 10.488594 7.8710938 10.570312 C 7.8941298 10.615723 7.8939456 10.669602 7.9003906 10.720703 C 7.671341 10.730203 7.4442962 10.752232 7.2324219 10.835938 C 7.0786019 10.896707 6.9913255 11.062173 6.8769531 11.181641 C 6.5142163 11.560533 6.5940327 11.582486 5.6347656 11.732422 C 5.4143543 11.766872 5.1753076 11.767134 4.9550781 11.802734 C 4.5420259 11.869494 3.9007467 11.898824 3.5820312 12.273438 C 3.5197293 12.346668 3.4797955 12.414148 3.4375 12.482422 L 3.4375 11.763672 L 5.9140625 11.283203 C 6.0958826 11.247903 6.2130323 11.072443 6.1777344 10.890625 C 6.1424344 10.708805 5.9669753 10.591654 5.7851562 10.626953 L 3.4375 11.082031 L 3.4375 10.583984 L 5.8828125 10.351562 C 6.0671994 10.334074 6.2010758 10.170716 6.1835938 9.9863281 C 6.166105 9.8019414 6.0046988 9.6680649 5.8203125 9.6855469 L 3.4375 9.9121094 L 3.4375 8.5859375 C 3.1013945 8.3586516 2.7972565 8.0873579 2.5332031 7.7792969 L 2.5332031 9.9980469 L 1.0175781 10.140625 C 0.83318923 10.158115 0.69931603 10.321472 0.71679688 10.505859 C 0.73430527 10.690246 0.89569325 10.824123 1.0800781 10.806641 L 2.5332031 10.667969 L 2.5332031 11.257812 L 1.0507812 11.544922 C 0.86896954 11.580222 0.74985816 11.755681 0.78515625 11.9375 C 0.82044845 12.11932 0.99591469 12.238423 1.1777344 12.203125 L 2.5332031 11.939453 L 2.5332031 15.287109 L 13.919922 15.287109 L 13.919922 11.263672 L 14.951172 11.263672 C 15.136385 11.263672 15.285156 11.114901 15.285156 10.929688 C 15.285156 10.744473 15.136386 10.59375 14.951172 10.59375 L 13.919922 10.59375 L 13.919922 9.953125 L 14.972656 9.8457031 C 15.156919 9.8269554 15.292189 9.6627784 15.273438 9.4785156 C 15.25469 9.2942526 15.090513 9.1628901 14.90625 9.1816406 L 13.919922 9.28125 L 13.919922 0.71289062 L 7.9082031 0.71289062 z M 4.828125 0.79492188 L 5.0351562 2.3613281 C 5.0697396 2.6449117 5.1537396 3.0772025 5.2851562 3.6582031 C 4.6834056 3.2985361 4.3064635 3.0847916 4.1542969 3.015625 L 2.7109375 2.3613281 L 1.9648438 4.5507812 L 3.5722656 4.8105469 C 4.0910163 4.9073782 4.5099583 4.9703782 4.828125 4.9980469 C 4.516875 5.2262973 4.1981309 5.5030416 3.8730469 5.828125 L 2.7109375 7 L 4.6308594 8.4003906 L 5.4082031 7 C 5.4981198 6.8547496 5.6794681 6.4644591 5.9492188 5.828125 C 6.1982187 6.4091257 6.3776146 6.7994162 6.4882812 7 L 7.2558594 8.4003906 L 9.1230469 7 L 8.0449219 5.828125 C 7.8166712 5.5791247 7.5084278 5.3023805 7.1210938 4.9980469 C 7.6951777 4.977297 8.1274681 4.9381458 8.4179688 4.8828125 L 10.015625 4.5507812 L 9.2988281 2.3613281 L 7.8574219 3.046875 C 7.7052552 3.1160419 7.48386 3.2295883 7.1933594 3.3886719 C 7.1103594 3.4370883 6.9386146 3.5267862 6.6757812 3.6582031 C 6.8071979 3.1740361 6.8920937 2.7417453 6.9335938 2.3613281 L 7.1210938 0.79492188 L 4.828125 0.79492188 z "
     style="fill:#c5c5c5;stroke:none;stroke-width:0.0897117;stroke-miterlimit:4;stroke-dasharray:none" />
</svg>
