<?xml version="1.0" encoding="UTF-8" standalone="no"?>
<svg
   xmlns:dc="http://purl.org/dc/elements/1.1/"
   xmlns:cc="http://creativecommons.org/ns#"
   xmlns:rdf="http://www.w3.org/1999/02/22-rdf-syntax-ns#"
   xmlns:svg="http://www.w3.org/2000/svg"
   xmlns="http://www.w3.org/2000/svg"
   viewBox="0 0 16 16"
   version="1.1"
   fill="none"
   height="16"
   width="16"
   id="svg4572">
  <metadata
     id="metadata4578">
    <rdf:RDF>
      <cc:Work
         rdf:about="">
        <dc:format>
               image/svg+xml
            </dc:format>
        <dc:type
           rdf:resource="http://purl.org/dc/dcmitype/StillImage" />
        <dc:title></dc:title>
      </cc:Work>
    </rdf:RDF>
  </metadata>
  <defs
     id="defs4576" />
  <path
     id="path818"
     d="M 4.3144531 0.140625 C 4.2041372 0.11927349 4.0900893 0.12192209 3.9726562 0.15039062 C 3.7449073 0.18597644 3.5629604 0.3145244 3.4277344 0.53515625 C 3.3280941 0.74155378 3.3181956 0.96239952 3.3964844 1.1972656 L 4.015625 2.8945312 C 4.0654451 3.0084055 4.0390933 3.1033516 3.9394531 3.1816406 C 3.84693 3.2599293 3.7473823 3.2744294 3.640625 3.2246094 L 2.1464844 2.4453125 C 1.9400868 2.3385554 1.7192413 2.3313051 1.484375 2.4238281 C 1.2637435 2.5163512 1.1153984 2.6811494 1.0371094 2.9160156 C 0.94458649 3.1508818 0.96173486 3.3717275 1.0898438 3.578125 C 1.2250698 3.7845223 1.4070167 3.9058203 1.6347656 3.9414062 L 3.3105469 4.2402344 C 3.4457729 4.2615858 3.5235703 4.3393833 3.5449219 4.4746094 C 3.5733905 4.6027182 3.5272417 4.6904144 3.40625 4.7402344 L 1.8691406 5.7128906 C 1.6912116 5.8481166 1.5745153 6.0327119 1.5175781 6.2675781 C 1.467758 6.4953271 1.5211569 6.6944226 1.6777344 6.8652344 L 1.6777344 6.8867188 C 1.8343118 7.0717648 2.0288056 7.1640625 2.2636719 7.1640625 C 2.498538 7.1640625 2.6976335 7.0717648 2.8613281 6.8867188 L 4.0898438 5.4882812 C 4.1681324 5.409993 4.2604302 5.3809928 4.3671875 5.4023438 C 4.4952964 5.459281 4.5585938 5.5390317 4.5585938 5.6386719 L 4.6777344 7.4746094 C 4.6777344 7.7094755 4.7799307 7.9039694 4.9863281 8.0605469 C 5.1927258 8.2100072 5.4135716 8.2607573 5.6484375 8.2109375 C 5.8833038 8.1611174 6.0725007 8.0180694 6.2148438 7.7832031 C 6.3358358 7.5768057 6.3503356 7.3559599 6.2578125 7.1210938 L 5.6171875 5.4238281 C 5.5744844 5.3099539 5.5988831 5.2150078 5.6914062 5.1367188 C 5.769695 5.0584297 5.8619927 5.0439299 5.96875 5.09375 L 7.5585938 5.9160156 C 7.7649913 6.0156557 7.9858369 6.0229061 8.2207031 5.9375 C 8.4271003 5.844977 8.5701488 5.6801788 8.6484375 5.4453125 L 8.6699219 5.4453125 C 8.7624448 5.2104463 8.7452964 4.9896006 8.6171875 4.7832031 C 8.4819615 4.5910403 8.3000146 4.474344 8.0722656 4.4316406 L 6.3105469 4.1210938 C 6.1966724 4.1068594 6.1261249 4.0435619 6.0976562 3.9296875 C 6.0763051 3.8229304 6.1152036 3.7306328 6.2148438 3.6523438 L 7.7519531 2.6386719 C 7.9654683 2.510563 8.0821646 2.3213661 8.1035156 2.0722656 C 8.1319843 1.8302823 8.0686869 1.6166867 7.9121094 1.4316406 C 7.7412977 1.2465944 7.5376006 1.1542969 7.3027344 1.1542969 C 7.0607511 1.1542969 6.8616557 1.2465944 6.7050781 1.4316406 L 5.5 2.8300781 C 5.4217112 2.9226008 5.3274605 2.951601 5.2207031 2.9160156 C 5.0925943 2.8733126 5.0292969 2.7955151 5.0292969 2.6816406 L 4.9550781 0.88671875 C 4.9266095 0.65185249 4.8198116 0.45010863 4.6347656 0.27929688 C 4.5315668 0.20812532 4.4247691 0.16197651 4.3144531 0.140625 z M 9.2773438 0.71289062 C 8.6737944 0.7130477 8.721387 1.6171875 9.3652344 1.6171875 L 13.013672 1.6171875 L 13.013672 4.0273438 C 12.989662 3.9545958 12.967074 3.8833535 12.927734 3.8046875 C 12.612215 3.1736643 12.189015 2.9265044 11.650391 2.9472656 C 11.470849 2.9541856 11.283352 2.9871734 11.089844 3.0371094 C 10.860772 3.0962244 10.644044 3.3670553 10.492188 3.625 C 10.431347 3.7485088 10.401064 3.8902954 10.433594 4.0195312 C 10.481574 4.2815911 10.506432 4.5477668 10.507812 4.8144531 C 10.430502 5.0401069 10.44981 5.3807197 10.53125 5.4707031 C 10.65131 5.5508411 10.789092 5.5976802 10.910156 5.5742188 C 11.36306 5.4864477 12.089154 5.0937309 12.666016 4.8105469 C 12.845081 4.7226429 12.954825 4.6213727 13.013672 4.5078125 L 13.013672 9.375 L 10.587891 9.6210938 C 10.403628 9.6398418 10.270312 9.8020669 10.289062 9.9863281 C 10.307813 10.170591 10.470034 10.303907 10.654297 10.285156 L 13.013672 10.044922 L 13.013672 10.59375 L 10.611328 10.59375 C 10.426115 10.59375 10.275391 10.744472 10.275391 10.929688 C 10.275391 11.114899 10.426114 11.263672 10.611328 11.263672 L 13.013672 11.263672 L 13.013672 14.382812 L 3.4375 14.382812 L 3.4375 13.707031 C 3.5546684 13.793581 3.7867676 13.855021 3.875 13.814453 C 4.2048029 13.662809 4.2312182 13.355682 4.6230469 12.986328 C 4.8049511 12.814858 4.9446529 12.565438 5.2207031 12.423828 C 5.4671962 12.29738 5.9491442 12.372378 6.6738281 12.216797 C 7.2684121 12.089147 7.7179725 12.092907 8.21875 12.089844 C 9.0181939 12.084944 9.6378213 12.112364 10.642578 12.302734 C 11.349183 12.436612 11.532412 12.758925 11.673828 13.078125 C 11.783834 13.326428 11.744228 13.431301 11.921875 13.636719 C 12.059395 13.795734 12.425864 13.988929 12.636719 13.804688 C 12.804654 13.657939 12.63872 13.303627 12.820312 13.123047 C 13.025054 12.919471 13.099565 12.681665 12.826172 12.378906 C 11.923549 11.894094 11.284659 11.791296 10.166016 11.640625 C 9.9680701 11.62132 9.850732 11.397027 9.7050781 11.261719 C 9.3602007 10.941336 9.0311985 10.779008 8.6035156 10.730469 C 8.6198437 10.675301 8.6389647 10.526233 8.6699219 10.486328 C 9.3655663 9.5895543 10.329283 9.0187031 11.0625 8.8515625 C 11.335689 8.7892875 11.219029 8.4593303 11.154297 8.4199219 C 11.009456 8.3317499 10.823864 8.327453 10.654297 8.328125 C 10.048027 8.397166 9.4722023 8.4374267 8.9023438 8.4609375 C 8.7251717 8.4747593 8.586506 8.5289829 8.4902344 8.5839844 C 8.1410896 8.8179181 7.7614868 9.0016637 7.3632812 9.1308594 C 6.8787085 9.3366598 6.9605946 9.5006075 7.0664062 9.6054688 C 7.1326953 9.6698098 7.1735363 9.711049 7.2246094 9.7675781 C 7.3968142 9.9581792 7.5549536 10.168778 7.7050781 10.351562 C 7.7624701 10.422992 7.829642 10.488594 7.8710938 10.570312 C 7.8941298 10.615723 7.8939456 10.669602 7.9003906 10.720703 C 7.671341 10.730203 7.4442962 10.752232 7.2324219 10.835938 C 7.0786019 10.896707 6.9913255 11.062173 6.8769531 11.181641 C 6.5142163 11.560533 6.5940327 11.582486 5.6347656 11.732422 C 5.4143543 11.766872 5.1753076 11.767134 4.9550781 11.802734 C 4.5420259 11.869494 3.9007467 11.898824 3.5820312 12.273438 C 3.5197293 12.346668 3.4797955 12.414148 3.4375 12.482422 L 3.4375 11.763672 L 5.9140625 11.283203 C 6.0958826 11.247903 6.2130323 11.072443 6.1777344 10.890625 C 6.1424344 10.708805 5.9669753 10.591654 5.7851562 10.626953 L 3.4375 11.082031 L 3.4375 10.583984 L 5.8828125 10.351562 C 6.0671994 10.334074 6.2010758 10.170716 6.1835938 9.9863281 C 6.166105 9.8019414 6.0046988 9.6680649 5.8203125 9.6855469 L 3.4375 9.9121094 L 3.4375 8.5859375 C 3.4375 7.8204955 2.5332031 7.8414185 2.5332031 8.5292969 L 2.5332031 9.9980469 L 1.0175781 10.140625 C 0.83318925 10.158115 0.69931603 10.321472 0.71679688 10.505859 C 0.73430527 10.690246 0.89569327 10.824123 1.0800781 10.806641 L 2.5332031 10.667969 L 2.5332031 11.257812 L 1.0507812 11.544922 C 0.86896959 11.580222 0.74985816 11.755681 0.78515625 11.9375 C 0.82044845 12.11932 0.99591467 12.238423 1.1777344 12.203125 L 2.5332031 11.939453 L 2.5332031 15.287109 L 13.919922 15.287109 L 13.919922 11.263672 L 14.951172 11.263672 C 15.136385 11.263672 15.285156 11.1149 15.285156 10.929688 C 15.285156 10.744473 15.136386 10.59375 14.951172 10.59375 L 13.919922 10.59375 L 13.919922 9.953125 L 14.972656 9.8457031 C 15.156919 9.8269554 15.292189 9.6627784 15.273438 9.4785156 C 15.254689 9.2942526 15.090513 9.1628901 14.90625 9.1816406 L 13.919922 9.28125 L 13.919922 0.71289062 L 9.2773438 0.71289062 z "
     style="fill:#c5c5c5;stroke:none;stroke-width:0.0897117;stroke-miterlimit:4;stroke-dasharray:none" />
</svg>
