<svg xmlns="http://www.w3.org/2000/svg" width="16" height="16">
   <path d="M12.762 1.022l-.063.06-.557.557 1.77 1.77-1.77 1.77.62.619L15.15 3.41zm-6.928 0l.063.06.557.557-1.77 1.77 1.77 1.77-.62.619L3.446 3.41zm2.315 0l.063.06.557.557-1.77 1.77 1.77 1.77-.62.619L5.76 3.41zm2.346 0l-.063.06-.557.557 1.77 1.77-1.77 1.77.62.619 2.388-2.388zM8.32 7.94h-2l2.832 3.776a.21.21 0 00.339-.004l2.83-3.772h-2v-2h-2zM.373 1.018v6.459h7.496v-1H1.373v-4.46h2.758l1-1zm11.254 4.355l-.604.604v.5h-.253v1h1.253v-1.71zM3.849 8.52v6.459h11.65v-6.46h-3.05l-.75 1h2.8v4.46h-9.65v-4.46H6.94l-.75-1z" style="line-height:normal;font-variant-ligatures:normal;font-variant-position:normal;font-variant-caps:normal;font-variant-numeric:normal;font-variant-alternates:normal;font-feature-settings:normal;text-indent:0;text-align:start;text-decoration-line:none;text-decoration-style:solid;text-decoration-color:#000;text-transform:none;text-orientation:mixed;white-space:normal;shape-padding:0;isolation:auto;mix-blend-mode:normal;solid-color:#000;solid-opacity:1" color="#000" font-weight="400" font-family="sans-serif" overflow="visible" fill="#c5c5c5"/>
</svg>