<svg xmlns="http://www.w3.org/2000/svg" height="16" width="16">
   <path d="M11.117 1.086a4.068 4.068 0 00-4.039 3.633c.19.038.38.07.563.125h.002c.139.04.269.105.404.156a3.079 3.079 0 013.072-2.926 3.079 3.079 0 013.078 3.078 3.079 3.079 0 01-3.078 3.08 3.079 3.079 0 01-1.41-.343V8.96a4.068 4.068 0 001.408.26 4.068 4.068 0 004.07-4.069 4.068 4.068 0 00-4.068-4.066h-.002zm-3.846 6.86l-3.476 3.476c.044.183.099.347.164.492l.379.379 3.756-3.756-.067-.06a3.45 3.45 0 00-.756-.532z" fill="#c5c5c5"/>
   <path d="M8.709 6.446v1.298q-.622-.579-1.329-.865-.7-.287-1.493-.287-1.56 0-2.389.957-.828.95-.828 2.755 0 1.797.828 2.754.83.95 2.39.95.792 0 1.492-.286.707-.286 1.329-.865v1.286q-.646.439-1.371.658-.72.22-1.524.22-2.066 0-3.254-1.262-1.188-1.268-1.188-3.455 0-2.194 1.188-3.456 1.188-1.267 3.254-1.267.817 0 1.536.22.725.212 1.359.645z" fill="#c5c5c5"/>
</svg>