<svg xmlns="http://www.w3.org/2000/svg" height="16" width="16">
   <path d="M11.117 1.086a4.068 4.068 0 00-4.055 3.762c.29.07.582.15.875.248l.104.033a3.079 3.079 0 013.078-3.055 3.079 3.079 0 013.078 3.078 3.079 3.079 0 01-3.078 3.08A3.079 3.079 0 018.621 6.95v1.403a4.068 4.068 0 002.496.869 4.068 4.068 0 004.07-4.069 4.068 4.068 0 00-4.068-4.066h-.002zM7.105 8.11l-.72.721c.361.107.689.252.994.42l.685-.686-.875-.42c-.029-.013-.055-.021-.084-.035zm-3.414 3.414l-.06.06.707.708.517-.518-.675-.13h-.002c-.17-.034-.327-.079-.487-.12z" fill="#c5c5c5"/>
   <path d="M7.621 6.044v1.2q-.7-.335-1.322-.5-.622-.164-1.2-.164-1.006 0-1.555.39-.542.39-.542 1.11 0 .603.36.913.365.305 1.377.494l.743.152q1.377.262 2.03.927.658.658.658 1.767 0 1.322-.89 2.005-.884.683-2.596.683-.646 0-1.377-.147-.726-.146-1.506-.432v-1.268q.75.42 1.469.634.72.213 1.414.213 1.054 0 1.627-.414.573-.415.573-1.183 0-.67-.415-1.048-.408-.378-1.346-.567l-.75-.146q-1.377-.274-1.993-.86-.615-.584-.615-1.626 0-1.207.847-1.902.853-.694 2.346-.694.64 0 1.304.115.664.116 1.36.348z" fill="#c5c5c5"/>
</svg>