<svg xmlns="http://www.w3.org/2000/svg" height="16" width="16">
   <path d="M11.117 1.086a4.068 4.068 0 00-4.066 4.066 4.068 4.068 0 00.713 2.301l-2.17 2.17h1.414l1.424-1.424a4.068 4.068 0 002.685 1.022 4.068 4.068 0 004.07-4.069 4.068 4.068 0 00-4.068-4.066h-.002zm.002.988a3.079 3.079 0 013.078 3.078 3.079 3.079 0 01-3.078 3.08 3.079 3.079 0 01-3.08-3.08 3.079 3.079 0 013.08-3.078zm-6.004 8.028l-1.484 1.484.707.707 1.484-1.484-.707-.707z" fill="#c5c5c5"/>
   <path d="M10.363 10.215l2.427 2.426-2.426 2.427h2.41L15.2 12.64l-2.426-2.426z" fill="#c5c5c5"/>
   <path d="M6.08 10.215l2.427 2.426-2.426 2.427h2.41l2.426-2.427-2.426-2.426z" fill="#c5c5c5"/>
</svg>