<svg xmlns="http://www.w3.org/2000/svg" height="16" width="16">
   <path d="M11.117 1.086a4.068 4.068 0 00-4.043 3.66h.994a3.079 3.079 0 013.051-2.672 3.079 3.079 0 013.078 3.078 3.079 3.079 0 01-3.078 3.08 3.079 3.079 0 01-1.424-.351v1.074a4.068 4.068 0 001.422.266 4.068 4.068 0 004.07-4.069 4.068 4.068 0 00-4.068-4.066h-.002zM3.99 11.512v.433l.348.348.781-.781H3.99z" fill="#c5c5c5"/>
   <path d="M1.76 5.745h1.231v3.73h4.473v-3.73h1.231v9.099h-1.23V10.51H2.99v4.333h-1.23z" fill="#c5c5c5"/>
</svg>