<svg xmlns="http://www.w3.org/2000/svg" width="16" height="16">
   <path d="M5.554 10.215L3.127 12.64l2.426 2.427h-2.41L.716 12.64l2.426-2.426z" fill="#c5c5c5"/>
   <path d="M9.927 10.215L7.5 12.64l2.426 2.427h-2.41L5.09 12.64l2.426-2.426z" fill="#c5c5c5"/>
   <path d="M11.117 1.086a4.068 4.068 0 00-4.066 4.066 4.068 4.068 0 00.713 2.301L6.002 9.215h1.414l1.016-1.016a4.068 4.068 0 002.685 1.022 4.068 4.068 0 004.07-4.069 4.068 4.068 0 00-4.068-4.066h-.002zm.002.988a3.079 3.079 0 013.078 3.078 3.079 3.079 0 01-3.078 3.08 3.079 3.079 0 01-3.08-3.08 3.079 3.079 0 013.08-3.078z" fill="#c5c5c5"/>
</svg>