<svg xmlns="http://www.w3.org/2000/svg" width="16" height="16">
   <path d="M7.55 2.102v.984A4.938 4.938 0 003.087 7.55h-.984v.898h.984a4.938 4.938 0 004.465 4.465v.984h.898v-.982a4.938 4.938 0 004.465-4.467h.984v-.898h-.984A4.938 4.938 0 008.45 3.088v-.986zm0 1.9v3.549H4a4.027 4.027 0 013.55-3.549zm.9 0a4.027 4.027 0 013.548 3.549H8.449zM4.001 8.449h3.549v3.549a4.027 4.027 0 01-3.549-3.549zm4.447 0H12a4.027 4.027 0 01-3.55 3.547zM1.096 3.5v9h3.949a5.416 5.416 0 01-1.318-1.258H2.344V8.967h-.242a.517.517 0 01-.516-.518v-.898a.517.517 0 01.516-.516h.242v-2.28h1.385A5.41 5.41 0 015.049 3.5zm9.855 0c.512.337.95.769 1.32 1.256h1.385v2.28h.242a.517.517 0 01.516.515v.898a.517.517 0 01-.516.518h-.242v2.275h-1.383c-.37.487-.806.92-1.318 1.258h3.95v-9z" fill="#c5c5c5" paint-order="stroke fill markers"/>
</svg>