<svg xmlns="http://www.w3.org/2000/svg" width="16" height="16">
   <path d="M11.49 5.904a.096.096 0 00-.086.096v1a.096.096 0 00.096.096h1c.461 0 .94.286 1.3.734.362.449.604 1.055.604 1.67s-.247 1.221-.611 1.67c-.364.449-.843.734-1.293.734h-4c-.45 0-.929-.285-1.293-.734a2.716 2.716 0 01-.611-1.67c0-.798.409-1.584.963-2.014a.096.096 0 00.037-.076V6.25a.096.096 0 00-.137-.086C6.332 6.712 5.404 8.05 5.404 9.5c0 .932.398 1.828.98 2.492.583.665 1.354 1.104 2.116 1.104h4c.762 0 1.533-.44 2.115-1.104.583-.664.98-1.56.98-2.492 0-.931-.384-1.827-.96-2.492-.577-.665-1.349-1.104-2.135-1.104h-1a.096.096 0 00-.01 0zm-7.99-3c-.762 0-1.533.44-2.115 1.104-.583.664-.98 1.56-.98 2.492 0 .931.384 1.827.96 2.492.577.665 1.349 1.104 2.135 1.104h1A.096.096 0 004.596 10V9a.096.096 0 00-.096-.096h-1c-.461 0-.94-.286-1.3-.734a2.723 2.723 0 01-.604-1.67c0-.615.247-1.221.611-1.67.364-.449.843-.734 1.293-.734h4c.45 0 .929.285 1.293.734.364.449.611 1.055.611 1.67 0 .787-.41 1.585-.963 2.014a.096.096 0 00-.037.076v1.16a.096.096 0 00.137.086c1.127-.548 2.055-1.885 2.055-3.336 0-.932-.398-1.828-.98-2.492-.583-.665-1.354-1.104-2.116-1.104z" fill="#c5c5c5"/>
</svg>
