<svg width="16" height="16" fill="currentColor" xmlns="http://www.w3.org/2000/svg">
   <path d="M3.5 1l-.5.5v12l.5.5h10l.5-.5v-1.39a3.018 3.018 0 001.428-2.561A3.018 3.018 0 0014 6.989V5l-.1-.4-3.4-3.5-.3-.1H3.5zM4 2h5v4h4v.598a3.018 3.018 0 00-.59-.067A3.018 3.018 0 009.39 9.55a3.018 3.018 0 003.02 3.017A3.018 3.018 0 0013 12.5v.5H4V2zm6 0l2.9 3H10V2zm2.41 5.531a2.018 2.018 0 01.633.106 2.018 2.018 0 01.262.111 2.018 2.018 0 01.09.041 2.018 2.018 0 01.322.223 2.018 2.018 0 01.04.043 2.018 2.018 0 01.223.234 2.018 2.018 0 01.448 1.26A2.018 2.018 0 0114 10.78a2.018 2.018 0 01-.97.682 2.018 2.018 0 01-.62.103 2.018 2.018 0 01-2.02-2.017 2.018 2.018 0 012.02-2.018zm.008.065l-.5.289v2.248h2.117l.23-.496-.23-.504h-1.117V7.885l-.5-.29z" fill="#c5c5c5"/>
</svg>