<svg xmlns="http://www.w3.org/2000/svg" height="16" width="16">
   <path d="M7.643 6.924c-.543 0-1.075.31-1.475.765-.4.457-.674 1.07-.674 1.715 0 .644.264 1.258.66 1.715.397.457.931.766 1.489.766h.662c.089 0 .164-.075.164-.164v-.662a.166.166 0 00-.164-.164h-.662c-.264 0-.557-.169-.782-.448a1.706 1.706 0 01-.379-1.045c0-.38.156-.76.383-1.04s.522-.45.778-.45h2.648c.256 0 .55.17.777.45.228.28.383.662.383 1.042 0 .487-.262.992-.6 1.254a.162.162 0 00-.062.13v.769c.001.115.13.195.234.146.785-.381 1.416-1.296 1.416-2.299 0-.645-.272-1.258-.671-1.715-.4-.456-.934-.765-1.477-.765zm5.132 2.15v.66c0 .09.075.164.164.164h.66c.264 0 .56.17.784.45.226.28.379.662.379 1.043 0 .38-.156.76-.383 1.04s-.524.45-.78.45h-2.646c-.256 0-.552-.17-.78-.45a1.694 1.694 0 01-.38-1.042c0-.494.26-.992.598-1.254a.164.164 0 00.064-.13v-.767a.167.167 0 00-.234-.146c-.784.381-1.418 1.296-1.418 2.299 0 .645.274 1.258.674 1.714.4.457.933.766 1.476.766H13.6c.542 0 1.077-.31 1.476-.766.4-.456.674-1.07.674-1.714a2.66 2.66 0 00-.66-1.715v-.002c-.397-.457-.933-.764-1.49-.764h-.573c-.224.018-.23.064-.252.164zM7 .5c-1.11 0-2 .89-2 2H2c-.55 0-1 .45-1 1v11c0 .55.45 1 1 1h10c.28-.02.51-.12.7-.3.19-.18.28-.42.3-.7v-.129h-1v.129H2v-9h10v1.72c.335.25.548.712.72 1.143.09-.045.19-.037.28-.054V3.5c0-.55-.45-1-1-1H9c0-1.11-.89-2-2-2zm0 1c.55 0 1 .45 1 1s.45 1 1 1h1c.55 0 1 .45 1 1H3c0-.55.45-1 1-1h1c.55 0 1-.45 1-1s.45-1 1-1zm5 10.037v.844h1v-.916l-.01-.796c-.142.036-.158-.017-.283.069-.21.091-.281.49-.707.8zm.932-2.527a.064.064 0 00-.057.063v.662a.064.064 0 00.064.064h.661c.306 0 .623.189.861.485.24.298.4.699.4 1.106 0 .407-.164.808-.405 1.105-.24.297-.558.486-.856.486h-2.647c-.298 0-.615-.189-.856-.486a1.798 1.798 0 01-.405-1.105c0-.528.271-1.049.638-1.333a.064.064 0 00.024-.05v-.768a.064.064 0 00-.09-.057c-.746.362-1.36 1.248-1.36 2.208 0 .617.263 1.21.648 1.65.386.44.896.73 1.4.73H13.6c.505 0 1.015-.291 1.4-.73.386-.44.65-1.033.65-1.65 0-.616-.255-1.21-.636-1.65-.382-.44-.893-.73-1.414-.73h-.661a.064.064 0 00-.007 0zM7.643 7.024c-.504 0-1.015.291-1.4.73-.386.44-.649 1.033-.649 1.65 0 .616.255 1.21.636 1.65.382.44.893.73 1.413.73h.662a.064.064 0 00.064-.063v-.662a.064.064 0 00-.064-.064h-.662c-.305 0-.622-.189-.86-.485a1.802 1.802 0 01-.4-1.106c0-.407.163-.808.404-1.105.241-.298.558-.486.856-.486h2.648c.298 0 .615.188.856.486.24.297.404.698.404 1.105 0 .521-.271 1.05-.637 1.333a.064.064 0 00-.025.05v.768a.064.064 0 00.09.057c.747-.362 1.361-1.247 1.361-2.208 0-.617-.263-1.21-.649-1.65-.385-.44-.896-.73-1.4-.73z" fill="#c5c5c5"/>
</svg>