<svg xmlns="http://www.w3.org/2000/svg" width="16" height="16">
   <path d="M3.5 1l-.5.5v12l.5.5h3.63a4.93 4.93 0 01-.92-1H4V2h5v3.6c.407-.14.832-.235 1.287-.235.383 0 .754.048 1.11.136.241.06.476.138.702.231.356.143.672.34.988.517.078.055.154.113.228.174.25.203.475.434.685.679V5.076l-.1-.476-3.4-3.5-.3-.1h-.563zM10 2l2.9 3H10z" fill="#c5c5c5"/><path d="M7.006 5.578a.056.056 0 00-.05.057v2.58a.056.056 0 00.056.056h2.58a.056.056 0 00.04-.095l-.966-.965a3.432 3.432 0 011.621-.416 3.482 3.482 0 013.479 3.478c0 .457-.09.893-.252 1.293a.056.056 0 00.023.069l.758.443a.056.056 0 00.08-.025 4.433 4.433 0 00.371-1.78c0-2.458-2-4.459-4.459-4.459-.86 0-1.662.249-2.343.672l-.893-.89a.056.056 0 00-.039-.018.056.056 0 00-.006 0zm-.795 2.94a.056.056 0 00-.037.033 4.435 4.435 0 00-.347 1.722 4.467 4.467 0 004.46 4.461c.86 0 1.66-.25 2.342-.673l.893.892a.056.056 0 00.096-.04v-2.581a.056.056 0 00-.057-.055h-2.58a.056.056 0 00-.04.096l.964.963a3.416 3.416 0 01-1.618.416 3.482 3.482 0 01-3.478-3.479c0-.431.082-.842.227-1.224a.056.056 0 00-.024-.069l-.758-.455a.056.056 0 00-.033-.007.056.056 0 00-.01 0z" fill="#c5c5c5" paint-order="stroke fill markers"/>
</svg>