<svg xmlns="http://www.w3.org/2000/svg" width="16" height="16">
   <path d="M3.236 1.457a.432.432 0 00-.431.434v.261h.865v-.261a.434.434 0 00-.434-.434zm.434.695v1.399a.432.432 0 01-.865 0V2.152h-.45c-.563 0-1.015.455-1.015 1.018v11.373c0 .563.452 1.016 1.015 1.016H12.66c.564 0 1.018-.453 1.018-1.016V3.17c0-.563-.454-1.018-1.018-1.018h-.45v1.399a.43.43 0 01-.43.431.43.43 0 01-.432-.431V2.152H9.365v1.399a.432.432 0 01-.865 0V2.152H6.518v1.399a.432.432 0 01-.866 0V2.152H3.67zm1.982 0h.866v-.261a.434.434 0 00-.866 0v.261zm2.848 0h.865v-.261a.434.434 0 00-.865 0v.261zm2.848 0h.863v-.261a.432.432 0 10-.863 0v.261zM2.21 4.695h10.594a.43.43 0 01.431.432v9.594a.43.43 0 01-.431.431H2.21a.43.43 0 01-.432-.431V5.127a.43.43 0 01.432-.432zm.553 1.203a.398.398 0 100 .797h9.49a.398.398 0 100-.797h-9.49zm0 2.43a.398.398 0 100 .797h9.49a.398.398 0 100-.797h-9.49zm0 2.43a.398.398 0 100 .795h9.49a.398.398 0 100-.795h-9.49zm0 2.428a.398.398 0 100 .796h9.49a.398.398 0 100-.796h-9.49z" fill="#C5C5C5" paint-order="stroke fill markers"/>
</svg>