<svg xmlns="http://www.w3.org/2000/svg" height="16" width="16">
   <path d="M2.763 12.136h11.66v2.508H2.764zm2.542-3.594h9.119v2.509H5.305zm2.526-3.593h6.593v2.51H7.83zm2.394-3.593h4.199v2.508h-4.199z"
         fill="#c5c5c5" />
   <path d="M6.422 1.225v1.076q-.488-.269-.983-.4-.488-.138-.988-.138-1.12 0-1.74.714-.62.707-.62 1.99 0 1.282.62 1.995.62.707 1.74.707.5 0 .988-.131.495-.138.983-.407v1.064q-.482.225-1.001.338-.513.112-1.095.112-1.583 0-2.516-.994-.932-.995-.932-2.685 0-1.714.939-2.697Q2.76.787 4.4.787q.532 0 1.038.113.507.106.983.325z"
         fill="#c5c5c5" />
</svg>