<svg xmlns="http://www.w3.org/2000/svg" height="16" width="16">
   <path d="M2.763 12.136h11.66v2.508H2.764zm2.542-3.594h9.119v2.509H5.305zm2.526-3.593h6.593v2.51H7.83zm2.394-3.593h4.199v2.508h-4.199z"
         fill="#c5c5c5" />
   <path d="M5.925 1.305v1.088q-.489-.25-1.014-.375-.526-.125-1.089-.125-.857 0-1.289.263-.425.263-.425.788 0 .4.306.632.307.225 1.233.432l.394.087q1.227.263 1.74.745.519.476.519 1.333 0 .976-.776 1.545-.77.57-2.121.57-.563 0-1.176-.113Q1.62 8.07.944 7.85V6.66q.638.332 1.258.501.619.163 1.226.163.813 0 1.251-.275.438-.282.438-.789 0-.469-.319-.72-.313-.25-1.383-.481l-.4-.094q-1.07-.225-1.546-.688-.475-.47-.475-1.283 0-.988.7-1.527Q2.397.93 3.685.93q.639 0 1.202.094t1.039.282z"
         fill="#c5c5c5" />
</svg>