<?xml version="1.0" encoding="UTF-8" standalone="no"?>
<svg
   xmlns:dc="http://purl.org/dc/elements/1.1/"
   xmlns:cc="http://creativecommons.org/ns#"
   xmlns:rdf="http://www.w3.org/1999/02/22-rdf-syntax-ns#"
   xmlns:svg="http://www.w3.org/2000/svg"
   xmlns="http://www.w3.org/2000/svg"
   id="svg4"
   version="1.1"
   fill="currentColor"
   viewBox="0 0 16 16"
   height="16"
   width="16">
  <metadata
     id="metadata10">
    <rdf:RDF>
      <cc:Work
         rdf:about="">
        <dc:format>image/svg+xml</dc:format>
        <dc:type
           rdf:resource="http://purl.org/dc/dcmitype/StillImage" />
        <dc:title></dc:title>
      </cc:Work>
    </rdf:RDF>
  </metadata>
  <defs
     id="defs8" />
  <path
     id="path814"
     d="M 8,1.1015625 A 1.6779661,1.6779661 0 0 0 6.3222656,2.7792969 1.6779661,1.6779661 0 0 0 8,4.4589844 1.6779661,1.6779661 0 0 0 9.6777344,2.7792969 1.6779661,1.6779661 0 0 0 8,1.1015625 Z M 8,6.3222657 A 1.6779661,1.6779661 0 0 0 6.3222656,8.0000001 1.6779661,1.6779661 0 0 0 8,9.6777344 1.6779661,1.6779661 0 0 0 9.6777344,8.0000001 1.6779661,1.6779661 0 0 0 8,6.3222657 Z M 8,11.54297 A 1.6779661,1.6779661 0 0 0 6.3222656,13.220704 1.6779661,1.6779661 0 0 0 8,14.898438 1.6779661,1.6779661 0 0 0 9.6777344,13.220704 1.6779661,1.6779661 0 0 0 8,11.54297 Z"
     style="fill:#c5c5c5;fill-opacity:1;stroke:none;stroke-width:0.0111423;stroke-miterlimit:4;stroke-dasharray:none" />
</svg>
