<svg xmlns="http://www.w3.org/2000/svg" fill="none" height="16" width="16">
   <path d="M6.258 2.893l-.104.05-4.633 2.27v2.025c-.01.004-.022.004-.033.008-.72.24-1.264.914-1.42 1.893v.007l-.002.006c-.186 1.454.105 2.893 1.055 4.012a9.644 9.644 0 01-.736.457l.486.875a9.359 9.359 0 001.047-.664c.47.29.963.467 1.441.656l.368-.927c-.4-.159-.738-.282-1.038-.432.014-.015.029-.028.041-.043l.012-.014.012-.013c.225-.31.619-.689 1.02-1.108l2.484 1.217H16V2.893H6.258zm.232 1H15v8.275H6.49l-3.969-1.945V8.127c.283.015.613.075.963.16a1.222 1.222 0 001.194.965A1.222 1.222 0 005.9 8.032a1.222 1.222 0 00-1.222-1.223 1.222 1.222 0 00-.983.498 6.288 6.288 0 00-1.074-.186c-.034-.002-.066.003-.1.002V5.838l3.97-1.945zM1.521 8.334v2.514l1.307.64c-.302.303-.607.61-.861.953-.024.029-.055.055-.08.082-.747-.874-.986-1.985-.828-3.232.086-.534.237-.8.462-.957z" fill="#c5c5c5"/>
</svg>