<svg xmlns="http://www.w3.org/2000/svg" width="16" height="16">
   <path d="M5.527.516c-.654 0-1.277.107-1.869.318a4.484 4.484 0 00-1.554.95c-.445.414-.8.938-1.065 1.571C.774 3.99.641 4.728.641 5.572c0 .876.133 1.634.398 2.276.273.633.64 1.154 1.1 1.56.46.415.995.719 1.611.914a6.23 6.23 0 001.965.305 7.04 7.04 0 001.11-.082c.35-.055.591-.106.724-.152l-.115-.868a4.638 4.638 0 01-.586.13 6.416 6.416 0 01-1.133.081c-.592 0-1.138-.09-1.637-.27a3.586 3.586 0 01-1.285-.775 3.675 3.675 0 01-.842-1.3c-.202-.524-.305-1.13-.305-1.819 0-.657.095-1.243.282-1.76.195-.516.463-.95.806-1.302a3.39 3.39 0 011.227-.82 4.08 4.08 0 011.566-.294c.57 0 1.08.094 1.532.282.46.187.85.445 1.17.773.319.329.564.713.736 1.15.171.43.256.89.256 1.383 0 .298-.024.592-.07.881-.047.282-.12.535-.221.762-.094.227-.22.412-.375.553a.736.736 0 01-.526.21.423.423 0 01-.34-.152c-.085-.101-.128-.279-.128-.529V3.121a5.599 5.599 0 00-.772-.187 5.787 5.787 0 00-1.086-.096c-.42 0-.8.072-1.135.213-.327.14-.608.335-.841.586-.226.242-.397.53-.514.867a3.131 3.131 0 00-.176 1.057c0 .445.063.835.188 1.171.124.337.299.623.525.858.226.227.491.398.795.515.312.118.655.176 1.03.176.24 0 .482-.03.724-.094.241-.07.448-.152.619-.246.11.118.246.211.41.282.164.07.37.105.62.105.311 0 .607-.07.888-.21.28-.142.522-.348.725-.622.202-.281.361-.626.478-1.033.125-.407.188-.875.188-1.406 0-.704-.124-1.334-.373-1.889A4.287 4.287 0 007.34.834 5.17 5.17 0 005.527.516zM8.686 1c.165.118.336.228.486.367.21.191.395.406.566.633h.545v.912l.026.05v.003c.28.627.418 1.33.418 2.092 0 .334-.033.645-.08.943h3.636v7h-9v-1.904a6.79 6.79 0 01-1-.133V13.5l.5.5h10l.5-.5V5l-.1-.4-3.4-3.5-.3-.1H8.685zm2.597 1l2.9 3h-2.9V2zM5.785 3.742c.164 0 .311.008.444.024.132.015.222.03.269.046v2.756c0 .094.004.192.012.293.008.102.023.205.047.307a1.85 1.85 0 01-.457.164 2.602 2.602 0 01-.49.047c-.453 0-.812-.166-1.077-.494-.265-.329-.396-.77-.396-1.324 0-.524.135-.96.408-1.303.273-.344.687-.516 1.24-.516z" fill="#c5c5c5"/><path d="M10.635 7v1h2.804V7h-2.804zM8.447 9v1h4.992V9H8.447zm-2.32 2v1h7.312v-1H6.127z" fill="#c5c5c5" paint-order="stroke fill markers"/>
</svg>