<svg xmlns="http://www.w3.org/2000/svg" width="28" height="28" viewBox="0 0 7.408 7.408">
   <path d="M.926 0v4.72l-.771.072a.17.17 0 10.032.339l.739-.07v.3l-.754.146a.17.17 0 10.064.333l.69-.133v1.701h5.787V5.363h.525a.17.17 0 100-.34h-.525v-.326l.536-.054a.17.17 0 10-.034-.338l-.502.05V0H.926zm.46.46h4.867v1.225a.806.806 0 00-.044-.114c-.16-.32-.375-.446-.65-.435-.09.003-.186.02-.284.045-.168.044-.342.322-.397.467-.078.203-.058.358-.046.55.008.122.203.302.352.273.23-.044.6-.244.893-.388a.37.37 0 00.176-.154v2.474l-1.233.125a.17.17 0 00-.152.186.17.17 0 00.186.152l1.2-.122v.279H5.03a.17.17 0 100 .34h1.222v1.585H1.385v-.343c.06.044.177.076.222.055.168-.077.181-.233.38-.421.093-.087.165-.214.305-.286.125-.064.37-.026.738-.105.302-.065.53-.063.785-.065.407-.002.722.011 1.233.108.359.068.452.232.524.394.056.127.036.18.126.284.07.08.256.18.364.086.085-.075 0-.255.092-.347.104-.103.143-.224.004-.378-.46-.247-.784-.298-1.353-.375-.1-.01-.16-.124-.234-.193a.93.93 0 00-.56-.27c.008-.028.018-.104.034-.124.354-.456.843-.746 1.216-.83.139-.032.08-.2.047-.22a.486.486 0 00-.254-.047c-.162 0-.321.04-.483.05a9.159 9.159 0 01-1.347.003c-.146-.013-.292-.03-.439-.023-.235.01-.281.129-.219.303.024.065.295.07.428.138.215.112.32.26.56.558.03.036.064.07.085.111.012.023.012.05.015.077a1.03 1.03 0 00-.34.058c-.078.03-.123.114-.18.175-.185.193-.145.205-.632.28-.112.018-.233.018-.345.036-.21.034-.537.05-.699.24-.031.037-.051.07-.073.106v-.366l1.259-.244a.17.17 0 10-.065-.334l-1.194.232v-.254L2.628 4.9a.17.17 0 10-.032-.338l-1.21.115V1.82c.1.047.262.08.333.112.225.098.375.245.521.322.091.048.44.143.517.075.113-.102.133-.568.037-.782a1.078 1.078 0 00-.33-.434c-.046-.037-.219-.078-.346-.075a1.886 1.886 0 00-.362.046c-.16.04-.24.131-.347.256l-.024.04z" fill="#fff"/>
</svg>
