<?xml version="1.0" encoding="UTF-8" standalone="no"?>
<svg
   xmlns:dc="http://purl.org/dc/elements/1.1/"
   xmlns:cc="http://creativecommons.org/ns#"
   xmlns:rdf="http://www.w3.org/1999/02/22-rdf-syntax-ns#"
   xmlns:svg="http://www.w3.org/2000/svg"
   xmlns="http://www.w3.org/2000/svg"
   style="enable-background:new"
   id="svg8"
   version="1.1"
   viewBox="0 0 7.4083332 7.4083335"
   height="28"
   width="28">
  <defs
     id="defs2">
    <clipPath
       id="clipPath4610"
       clipPathUnits="userSpaceOnUse">
      <rect
         transform="scale(-1,1)"
         y="1.1740885"
         x="1.0748698"
         height="7.1768222"
         width="5.4901042"
         id="rect4612"
         style="fill:#800000;stroke:none;stroke-width:0.01;stroke-miterlimit:4;stroke-dasharray:none" />
    </clipPath>
  </defs>
  <metadata
     id="metadata5">
    <rdf:RDF>
      <cc:Work
         rdf:about="">
        <dc:format>image/svg+xml</dc:format>
        <dc:type
           rdf:resource="http://purl.org/dc/dcmitype/StillImage" />
        <dc:title></dc:title>
      </cc:Work>
    </rdf:RDF>
  </metadata>
  <g
     transform="translate(0,-1.0583333)"
     style="display:inline;opacity:1"
     id="layer2">
    <path
       id="rect6378"
       transform="matrix(0.26458333,0,0,0.26458333,0,1.0583333)"
       d="M 3.4980469 0 L 3.4980469 1.7382812 L 3.4980469 17.837891 L 0.5859375 18.113281 C 0.23168238 18.146881 -0.027725507 18.45825 0.005859375 18.8125 C 0.03949717 19.166751 0.35278369 19.426165 0.70703125 19.392578 L 3.4980469 19.126953 L 3.4980469 20.259766 L 0.6484375 20.8125 C 0.29913356 20.88032 0.072808937 21.217088 0.140625 21.566406 C 0.20842972 21.915725 0.54325907 22.142035 0.89257812 22.074219 L 3.4980469 21.568359 L 3.4980469 26.261719 L 3.4980469 26.714844 L 3.4980469 28 L 5.2363281 28 L 24.087891 28 L 25.373047 28 L 25.373047 26.261719 L 25.373047 20.269531 L 27.355469 20.269531 C 27.711307 20.269531 27.998047 19.982793 27.998047 19.626953 C 27.998047 19.271114 27.711309 18.984375 27.355469 18.984375 L 25.373047 18.984375 L 25.373047 17.751953 L 27.398438 17.546875 C 27.752451 17.510856 28.00868 17.19581 27.972656 16.841797 C 27.936637 16.487784 27.623545 16.233507 27.269531 16.269531 L 25.373047 16.462891 L 25.373047 1.7382812 L 25.373047 0.86132812 L 25.373047 0.099609375 L 25.373047 0 L 5.2363281 0 L 3.4980469 0 z M 5.2363281 1.7382812 L 23.634766 1.7382812 L 23.634766 6.3691406 C 23.58864 6.2293737 23.542369 6.0905896 23.466797 5.9394531 C 22.86061 4.7271065 22.048499 4.2530815 21.013672 4.2929688 C 20.66873 4.3062727 20.307321 4.3689042 19.935547 4.4648438 C 19.300315 4.6287732 18.645715 5.6810479 18.435547 6.2304688 C 18.142584 6.9963337 18.218854 7.582991 18.263672 8.3085938 C 18.292094 8.7690124 19.031619 9.4484039 19.591797 9.3398438 C 20.461934 9.1712163 21.858507 8.4151579 22.966797 7.8710938 C 23.310825 7.7022093 23.521707 7.5072384 23.634766 7.2890625 L 23.634766 16.640625 L 18.972656 17.113281 C 18.618643 17.1493 18.362413 17.462396 18.398438 17.816406 C 18.434456 18.170419 18.747549 18.426649 19.101562 18.390625 L 23.634766 17.929688 L 23.634766 18.984375 L 19.015625 18.984375 C 18.659786 18.984375 18.373047 19.271113 18.373047 19.626953 C 18.373047 19.982792 18.659784 20.269531 19.015625 20.269531 L 23.634766 20.269531 L 23.634766 26.261719 L 5.2363281 26.261719 L 5.2363281 24.962891 C 5.4614368 25.129182 5.9047032 25.249816 6.0742188 25.171875 C 6.707849 24.88053 6.7589223 24.289697 7.5117188 23.580078 C 7.8612003 23.250643 8.1317506 22.772066 8.6621094 22.5 C 9.1356812 22.257063 10.058881 22.40047 11.451172 22.101562 C 12.59351 21.856317 13.457809 21.863307 14.419922 21.857422 C 15.955845 21.848011 17.147747 21.899881 19.078125 22.265625 C 20.435683 22.522837 20.788852 23.142599 21.060547 23.755859 C 21.271894 24.232908 21.193851 24.433469 21.535156 24.828125 C 21.799364 25.133632 22.505053 25.506318 22.910156 25.152344 C 23.232799 24.87041 22.910855 24.188735 23.259766 23.841797 C 23.653124 23.450678 23.798813 22.993781 23.273438 22.412109 C 21.539253 21.480668 20.311289 21.285569 18.162109 20.996094 C 17.781964 20.959004 17.55718 20.525585 17.277344 20.265625 C 16.614752 19.650093 15.981837 19.337396 15.160156 19.244141 C 15.191526 19.138151 15.229584 18.852058 15.289062 18.775391 C 16.625561 17.052474 18.476081 15.957836 19.884766 15.636719 C 20.409627 15.517074 20.186877 14.884307 20.0625 14.808594 C 19.784225 14.639195 19.427342 14.629567 19.101562 14.630859 C 18.49068 14.633259 17.887245 14.783682 17.277344 14.818359 C 15.449124 14.922308 13.852683 14.976353 12.185547 14.830078 C 11.634794 14.781757 11.079723 14.718902 10.527344 14.742188 C 9.6372208 14.779718 9.4622034 15.229799 9.6992188 15.890625 C 9.7872855 16.136166 10.811834 16.150509 11.314453 16.412109 C 12.12746 16.835257 12.527233 17.391496 13.433594 18.519531 C 13.543858 18.656766 13.674268 18.78245 13.753906 18.939453 C 13.798165 19.026704 13.798169 19.130335 13.810547 19.228516 C 13.370488 19.246695 12.934405 19.288407 12.527344 19.449219 C 12.231819 19.565972 12.061534 19.881804 11.841797 20.111328 C 11.144893 20.839273 11.29806 20.883812 9.4550781 21.171875 C 9.0316153 21.238066 8.5754573 21.236293 8.1523438 21.304688 C 7.3587718 21.43295 6.1240476 21.491215 5.5117188 22.210938 C 5.3920211 22.351623 5.317588 22.480157 5.2363281 22.611328 L 5.2363281 21.230469 L 9.9921875 20.308594 C 10.341507 20.240774 10.567816 19.904004 10.5 19.554688 C 10.43218 19.205368 10.095412 18.979059 9.7460938 19.046875 L 5.2363281 19.921875 L 5.2363281 18.962891 L 9.9335938 18.517578 C 10.287845 18.483978 10.545306 18.170659 10.511719 17.816406 C 10.478119 17.462155 10.16675 17.204694 9.8125 17.238281 L 5.2363281 17.671875 L 5.2363281 6.8769531 C 5.6199351 7.0567944 6.2280034 7.182445 6.4980469 7.3007812 C 7.347459 7.6730042 7.913513 8.229889 8.4667969 8.5195312 C 8.8113575 8.6999092 10.131017 9.0611518 10.419922 8.8007812 C 10.846148 8.4166524 10.922812 6.6561773 10.560547 5.8476562 C 10.2486 5.1514374 9.8988742 4.682108 9.3105469 4.2070312 C 9.1383176 4.067956 8.4861591 3.9134051 8.0058594 3.921875 C 7.52556 3.9303411 6.9358712 4.0237136 6.6386719 4.0976562 C 6.0344804 4.2479756 5.7312692 4.59361 5.3261719 5.0664062 C 5.3050065 5.091011 5.2670935 5.1623621 5.2363281 5.2128906 L 5.2363281 1.7382812 z "
       style="fill:#ffffff;stroke:none;stroke-width:0.1723576;stroke-miterlimit:4;stroke-dasharray:none" />
  </g>
</svg>
