<?xml version="1.0" encoding="UTF-8" standalone="no"?>
<!-- Created with Inkscape (http://www.inkscape.org/) -->

<svg
   xmlns:dc="http://purl.org/dc/elements/1.1/"
   xmlns:cc="http://creativecommons.org/ns#"
   xmlns:rdf="http://www.w3.org/1999/02/22-rdf-syntax-ns#"
   xmlns:svg="http://www.w3.org/2000/svg"
   xmlns="http://www.w3.org/2000/svg"
   xmlns:sodipodi="http://sodipodi.sourceforge.net/DTD/sodipodi-0.dtd"
   xmlns:inkscape="http://www.inkscape.org/namespaces/inkscape"
   width="28"
   height="28"
   viewBox="0 0 7.4083332 7.4083335"
   version="1.1"
   id="svg8"
   style="enable-background:new"
   inkscape:version="0.92.3 (2405546, 2018-03-11)"
   sodipodi:docname="leointegIcon.svg">
  <defs
     id="defs2" />
  <sodipodi:namedview
     id="base"
     pagecolor="#ffffff"
     bordercolor="#666666"
     borderopacity="1.0"
     inkscape:pageopacity="0.0"
     inkscape:pageshadow="2"
     inkscape:zoom="16"
     inkscape:cx="29.268563"
     inkscape:cy="14.722847"
     inkscape:document-units="mm"
     inkscape:current-layer="layer2"
     showgrid="true"
     units="px"
     inkscape:snap-global="false"
     inkscape:window-width="1920"
     inkscape:window-height="1052"
     inkscape:window-x="2560"
     inkscape:window-y="0"
     inkscape:window-maximized="1">
    <inkscape:grid
       type="xygrid"
       id="grid4540"
       empspacing="4"
       enabled="false" />
  </sodipodi:namedview>
  <metadata
     id="metadata5">
    <rdf:RDF>
      <cc:Work
         rdf:about="">
        <dc:format>image/svg+xml</dc:format>
        <dc:type
           rdf:resource="http://purl.org/dc/dcmitype/StillImage" />
        <dc:title></dc:title>
      </cc:Work>
    </rdf:RDF>
  </metadata>
  <g
     inkscape:groupmode="layer"
     id="layer2"
     inkscape:label="draw"
     style="display:inline;opacity:1"
     transform="translate(0,-1.0583333)">
    <path
       style="stroke-width:0.2315104;fill:#ffffff"
       d="M 0.92604167,1.0583333 V 5.6885415 H 0.69453125 V 5.9200519 H 0.92604167 V 6.3830728 H 0.69453125 V 6.6145832 H 0.92604167 V 8.4666665 H 6.7138021 V 6.3830728 H 7.4083333 V 6.1515623 H 6.7138021 V 5.6885415 H 7.4083333 V 5.4570311 H 6.7138021 V 1.0583333 Z M 0.69453125,6.6145832 H 0 v 0.2315104 h 0.69453125 z m 0,-0.6945313 H 0 V 6.1515623 H 0.69453125 Z M 1.1575521,1.2898437 H 6.4822917 V 2.6789062 H 6.2507812 V 2.4473958 H 6.0192708 V 2.2158854 H 5.0932292 V 2.6789062 H 4.8617187 V 3.3734375 H 5.3247396 V 3.141927 H 5.7877604 V 2.9104166 H 6.2507812 6.4822917 V 5.4570311 H 5.7877604 v 0.2315104 h 0.6945313 v 0.4630208 h -1.620573 v 0.2315105 h 1.620573 V 8.2351561 H 1.1575521 V 7.3091144 H 1.3890625 V 7.7721353 H 1.6205729 V 7.5406248 H 1.8520833 V 7.3091144 H 2.0835937 V 7.077604 H 2.3151042 V 6.8460936 H 2.778125 V 7.077604 H 4.8617187 V 6.8460936 H 5.3247396 V 7.077604 H 5.55625 V 7.5406248 H 5.7877604 V 7.7721353 H 6.0192708 V 7.3091144 H 6.2507812 V 6.8460936 H 5.55625 V 6.6145832 H 4.6302083 V 6.3830728 H 4.3986979 V 6.1515623 H 3.9356771 V 5.9200519 H 4.1671875 V 5.6885415 H 4.3986979 V 5.4570311 H 4.8617187 V 5.2255207 H 5.3247396 V 4.9940103 H 2.5466146 V 5.2255207 H 2.778125 V 5.4570311 H 3.2411458 V 5.6885415 H 3.4726562 V 5.9200519 H 3.7041667 V 6.1515623 H 3.2411458 V 6.3830728 H 3.0096354 V 6.6145832 H 2.0835937 V 6.8460936 H 1.3890625 V 7.077604 H 1.1575521 V 6.6145832 H 1.6205729 V 6.3830728 H 1.1575521 V 5.9200519 H 2.778125 V 5.6885415 H 1.1575521 V 2.6789062 H 1.3890625 1.8520833 V 2.9104166 H 2.3151042 V 3.141927 H 2.778125 V 2.4473958 H 2.5466146 V 1.984375 H 1.6205729 V 2.2158854 H 1.3890625 V 2.4473958 H 1.1575521 Z M 1.6205729,6.3830728 H 2.778125 V 6.1515623 H 1.6205729 Z M 5.7877604,5.6885415 H 4.8617187 V 5.9200519 H 5.7877604 Z M 1.8520833,2.2158854 H 2.0835937 2.3151042 V 2.4473958 2.6789062 H 2.0835937 V 2.4473958 H 1.8520833 Z M 5.3247396,2.4473958 H 5.55625 5.7877604 V 2.6789062 H 5.55625 V 2.9104166 H 5.3247396 V 2.6789062 Z"
       id="rect4581"
       inkscape:connector-curvature="0" />
  </g>
</svg>
