<svg xmlns="http://www.w3.org/2000/svg" fill="none" height="16" width="16">
   <path d="M1.777 7.967v2.885c.085.408.031.123.043.187 1.254 1.878 3.933 2.047 5.877 2.06 1.93-.08 3.795-.207 4.762-.876l-1.094-2.184c-1.075.408-2.404.64-3.732.635-2.821-.01-5.638-1.056-5.856-2.707z" fill="#424242" fill-opacity=".25" />
   <path d="M3.426 5.35v1.83c.008.106.008.23.082.33 2.407 1.93 6.178 1.828 8.412-.065a1.49 1.49 0 00.053-.32V3.924c-.625 2.272-6.566 2.393-8.18.66-.182-.197-.31-.417-.338-.539z" fill-opacity=".25" fill="#424242" />
   <path d="M8.285 8.442h6.802l-3.403 6.783z" fill="#424242" paint-order="stroke fill markers" />
   <path d="M7.697 1.219c-1.368 0-2.61.258-3.552.707-.842.4-1.504.99-1.637 1.756-.043.148-.017.268-.03.423v1.5C1.577 6.141.915 6.844.823 7.711c-.027.13-.008.271-.011.414l.003 2.396c.003.039.014.114.026.188.155.972 1 1.746 2.125 2.281 1.246.593 2.902.94 4.732.94.748 0 1.445-.082 2.115-.196l-.464-.93c-.527.074-1.072.126-1.65.126-1.704 0-3.237-.334-4.305-.842-.891-.424-1.398-.935-1.541-1.416-.012-.064-.03-.127-.043-.19V8.266c-.016-.3-.018-.553.16-.852.11-.215.282-.413.511-.605-.002.09.019.183.028.27.128.77.791 1.366 1.638 1.769.943.448 2.183.705 3.551.705l.02-.002-.508-1.01a8.994 8.994 0 01-1.041-.102c-1.023-.169-1.62-.505-2.008-.761-.388-.257-.508-.399-.597-.559-.075-.1-.075-.224-.083-.33V4.15c.002-.178.004-.127.01-.282.057-.326.394-.71 1.084-1.039.766-.364 1.884-.61 3.123-.61 1.24.001 2.36.244 3.125.61.68.322 1.015.701 1.074 1.03.01.132.014.312.018.52.012.663.005 1.625 0 2.054-.004.429-.022.527-.049.623-.03.07-.074.144-.13.218-.061.067-.133.11-.198.168h1.246c.05-.122.093-.247.113-.38.02-.095.015-.162.022-.252.238.2.41.408.52.632h1.066c-.158-.634-.597-1.182-1.233-1.625-.12-.078-.236-.157-.351-.236V4.086c-.003-.136-.017-.236-.024-.352-.11-.79-.78-1.4-1.64-1.808-.944-.45-2.19-.707-3.559-.707z" style="line-height:normal;font-variant-ligatures:normal;font-variant-position:normal;font-variant-caps:normal;font-variant-numeric:normal;font-variant-alternates:normal;font-feature-settings:normal;text-indent:0;text-align:start;text-decoration-line:none;text-decoration-style:solid;text-decoration-color:#000;text-transform:none;text-orientation:mixed;white-space:normal;shape-padding:0;isolation:auto;mix-blend-mode:normal;solid-color:#000;solid-opacity:1" fill="#424242" />
</svg>