<svg xmlns="http://www.w3.org/2000/svg" fill="none" height="16" width="16">
   <path fill-opacity=".25" fill="#424242" d="M1.777 7.966v2.885c.085.408.031.125.043.189 1.254 1.878 3.933 2.045 5.877 2.059 2.33-.098 4.586-.247 5.887-2.088.016-.195.048-.178.031-.382V7.966c-.198 1.667-3.12 2.718-5.982 2.708-2.821-.01-5.638-1.057-5.856-2.708z" />
   <path fill-opacity=".25" fill="#424242" d="M3.426 5.35v1.83c.008.106.008.23.082.33 2.407 1.93 6.178 1.828 8.412-.065a1.49 1.49 0 00.053-.32V3.924c-.625 2.272-6.566 2.393-8.18.66-.182-.197-.31-.417-.338-.539z" />
   <path style="line-height:normal;font-variant-ligatures:normal;font-variant-position:normal;font-variant-caps:normal;font-variant-numeric:normal;font-variant-alternates:normal;font-feature-settings:normal;text-indent:0;text-align:start;text-decoration-line:none;text-decoration-style:solid;text-decoration-color:#000;text-transform:none;text-orientation:mixed;white-space:normal;shape-padding:0;isolation:auto;mix-blend-mode:normal;solid-color:#000;solid-opacity:1" d="M4.145 1.926c-.842.4-1.504.99-1.637 1.756-.043.148-.018.268-.03.423v1.5C1.575 6.141.915 6.844.823 7.711c-.027.13-.01.271-.013.414l.004 2.396c.003.038.013.114.025.188.155.972 1 1.746 2.125 2.281 1.246.593 2.904.94 4.734.94s3.493-.347 4.74-.94c1.126-.535 1.972-1.31 2.126-2.283.033-.147.019-.251.029-.398V8.082c.019-.139-.015-.256-.022-.377-.082-.752-.576-1.385-1.3-1.889a16.56 16.56 0 01-.352-.236V4.086c-.003-.136-.015-.236-.022-.352-.11-.79-.781-1.4-1.642-1.808-.944-.45-2.189-.707-3.558-.707-1.368 0-2.61.258-3.552.707zm6.677.903c.68.322 1.015.7 1.074 1.028.01.133.015.313.019.522.012.662.003 1.624-.002 2.053-.004.43-.02.527-.047.623-.03.071-.075.144-.132.218-.629.691-1.493.887-2.297 1.112-1.339.275-2.587.176-3.848-.07-.8-.15-1.417-.562-1.86-.96-.181-.12-.23-.305-.249-.566V4.148c.002-.177.004-.125.01-.28.057-.326.394-.712 1.084-1.04.766-.364 1.884-.61 3.123-.61 1.24.001 2.36.245 3.125.611zM2.48 6.809c-.002.09.019.184.028.27.128.77.791 1.366 1.638 1.769.943.448 2.183.705 3.551.705 1.368 0 2.613-.257 3.557-.705.853-.406 1.522-1.007 1.642-1.787.02-.095.015-.162.022-.252.355.299.574.61.638.978.044.176.02.277.036.49v1.961a1.87 1.87 0 01-.031.383c-.122.495-.631 1.028-1.553 1.467-1.068.508-2.609.842-4.31.842-1.703 0-3.237-.334-4.305-.842-.891-.424-1.398-.935-1.541-1.416-.012-.064-.03-.127-.043-.19V8.266c-.016-.3-.018-.553.16-.852a1.99 1.99 0 01.511-.605z" fill="#424242" />
</svg>