<?xml version="1.0" encoding="UTF-8" standalone="no"?>
<svg
   xmlns:dc="http://purl.org/dc/elements/1.1/"
   xmlns:cc="http://creativecommons.org/ns#"
   xmlns:rdf="http://www.w3.org/1999/02/22-rdf-syntax-ns#"
   xmlns:svg="http://www.w3.org/2000/svg"
   xmlns="http://www.w3.org/2000/svg"
   id="svg8"
   version="1.1"
   fill="none"
   height="16"
   width="16">
  <metadata
     id="metadata14">
    <rdf:RDF>
      <cc:Work
         rdf:about="">
        <dc:format>image/svg+xml</dc:format>
        <dc:type
           rdf:resource="http://purl.org/dc/dcmitype/StillImage" />
        <dc:title></dc:title>
      </cc:Work>
    </rdf:RDF>
  </metadata>
  <defs
     id="defs12" />
  <path
     id="path2"
     fill-opacity=".250"
     fill="#424242"
     d="M1.777 7.966v2.885c.085.408.031.125.043.189 1.254 1.878 3.933 2.045 5.877 2.059 2.33-.098 4.586-.247 5.887-2.088.016-.195.048-.178.031-.382V7.966c-.198 1.667-3.12 2.718-5.982 2.708-2.821-.01-5.638-1.057-5.856-2.708z" />
  <path
     id="path4"
     fill-opacity=".250"
     fill="#424242"
     d="M3.426 5.35v1.83c.008.106.008.23.082.33 2.407 1.93 6.178 1.828 8.412-.065a1.49 1.49 0 00.053-.32V3.924c-.625 2.272-6.566 2.393-8.18.66-.182-.197-.31-.417-.338-.539z" />
  <path
     id="path6"
     style="line-height:normal;font-variant-ligatures:normal;font-variant-position:normal;font-variant-caps:normal;font-variant-numeric:normal;font-variant-alternates:normal;font-feature-settings:normal;text-indent:0;text-align:start;text-decoration:none;text-decoration-line:none;text-decoration-style:solid;text-decoration-color:#000000;text-transform:none;text-orientation:mixed;white-space:normal;shape-padding:0;isolation:auto;mix-blend-mode:normal;solid-color:#000000;solid-opacity:1;fill:#424242"
     d="M 4.145,1.926 C 3.303,2.326 2.641,2.916 2.508,3.682 2.465,3.83 2.49,3.95 2.478,4.105 v 1.5 C 1.575,6.141 0.915,6.844 0.823,7.711 0.796,7.841 0.813,7.982 0.81,8.125 l 0.0035,2.3955 C 0.817,10.559 0.827,10.635 0.839,10.709 c 0.155,0.972 1,1.746 2.125,2.281 1.246,0.593 2.904,0.94 4.734,0.94 1.83,0 3.493,-0.347 4.74,-0.94 1.126,-0.535 1.972,-1.31 2.126,-2.283 0.033,-0.147 0.019,-0.251 0.029,-0.398 V 8.082 C 14.612,7.943 14.578,7.826 14.571,7.705 14.489,6.953 13.995,6.32 13.271,5.816 13.151,5.738 13.034,5.659 12.919,5.58 V 4.086 C 12.916,3.95 12.904,3.85 12.897,3.734 12.787,2.944 12.116,2.334 11.255,1.926 10.311,1.476 9.066,1.219 7.6975,1.219 6.329,1.219 5.087,1.477 4.145,1.926 Z m 6.677,0.903 c 0.68,0.322 1.015,0.7 1.074,1.028 0.01,0.133 0.015,0.313 0.019,0.522 0.012,0.662 0.003,1.624 -0.0015,2.0530386 C 11.909042,6.8610773 11.892294,6.9592225 11.866,7.055 11.836,7.126 11.791,7.199 11.734,7.273 11.105,7.964 10.241,8.16 9.437,8.385 8.0981511,8.6600542 6.8497735,8.5608655 5.5889526,8.315807 4.7897935,8.1640764 4.1717227,7.7533392 3.728272,7.3545157 3.5479762,7.235787 3.4982213,7.0499073 3.48,6.789 V 4.148 C 3.482,3.971 3.484,4.023 3.49,3.868 3.547,3.542 3.884,3.156 4.574,2.828 5.34,2.464 6.458,2.218 7.6975,2.2185 8.937,2.219 10.057,2.463 10.822,2.829 Z M 2.48,6.809 c -0.002,0.09 0.019,0.184 0.028,0.27 0.128,0.77 0.791,1.366 1.638,1.769 0.943,0.448 2.183,0.705 3.551,0.705 1.368,0 2.613,-0.257 3.557,-0.705 0.853,-0.406 1.522,-1.007 1.642,-1.787 0.02,-0.095 0.015,-0.162 0.022,-0.252 0.355,0.299 0.574,0.61 0.638,0.978 0.044,0.176 0.02,0.277 0.036,0.49 v 1.961 c 0.0014,0.168844 -0.01109,0.273938 -0.031,0.383 -0.122,0.495 -0.631,1.028 -1.553,1.467 C 10.94,12.596 9.399,12.93 7.698,12.93 5.995,12.93 4.461,12.596 3.393,12.088 2.502,11.664 1.995,11.153 1.852,10.672 1.84,10.608 1.822,10.545 1.809,10.482 V 8.266 C 1.793,7.966 1.791,7.713 1.969,7.414 2.079,7.199 2.251,7.001 2.48,6.809 Z" />
</svg>
