<?xml version="1.0" encoding="UTF-8" standalone="no"?>
<svg
   xmlns:dc="http://purl.org/dc/elements/1.1/"
   xmlns:cc="http://creativecommons.org/ns#"
   xmlns:rdf="http://www.w3.org/1999/02/22-rdf-syntax-ns#"
   xmlns:svg="http://www.w3.org/2000/svg"
   xmlns="http://www.w3.org/2000/svg"
   id="svg8"
   version="1.1"
   fill="none"
   height="16"
   width="16">
  <metadata
     id="metadata14">
    <rdf:RDF>
      <cc:Work
         rdf:about="">
        <dc:format>image/svg+xml</dc:format>
        <dc:type
           rdf:resource="http://purl.org/dc/dcmitype/StillImage" />
        <dc:title></dc:title>
      </cc:Work>
    </rdf:RDF>
  </metadata>
  <defs
     id="defs12" />
  <path
     id="path2"
     d="M 1.7773438 7.9667969 L 1.7773438 10.851562 C 1.8623437 11.259563 1.8083125 10.975063 1.8203125 11.039062 C 3.0743125 12.917062 5.7532656 13.085609 7.6972656 13.099609 C 9.6277099 13.018415 11.492324 12.892263 12.458984 12.222656 L 11.365234 10.039062 C 10.289647 10.446681 8.9605323 10.678467 7.6328125 10.673828 C 4.8118125 10.663828 1.9953437 9.6177969 1.7773438 7.9667969 z "
     style="fill:#424242;fill-opacity:0.25" />
  <path
     id="path4"
     d="M3.426 5.35v1.83c.008.106.008.23.082.33 2.407 1.93 6.178 1.828 8.412-.065a1.49 1.49 0 00.053-.32V3.924c-.625 2.272-6.566 2.393-8.18.66-.182-.197-.31-.417-.338-.539z"
     fill-opacity=".250"
     fill="#424242" />
  <path
     style="fill:#424242;fill-opacity:1;stroke:none;stroke-width:0.94789338;stroke-linecap:round;stroke-linejoin:round;stroke-miterlimit:4;stroke-dasharray:none;paint-order:stroke fill markers"
     d="M 8.2853518,8.4422282 H 15.087067 L 11.684373,15.224678 Z"
     id="path817" />
  <path
     id="path4-3"
     d="m 7.6972657,1.21875 c -1.3685,0 -2.6107342,0.2580313 -3.5527344,0.7070312 -0.8419999,0.4000003 -1.5037187,0.9898594 -1.6367187,1.7558594 -0.043,0.148 -0.017297,0.2688281 -0.029297,0.4238282 v 1.5 c -0.903,0.5359999 -1.56424996,1.2384687 -1.65625,2.1054687 -0.027,0.13 -0.008719,0.2710625 -0.0117187,0.4140625 l 0.003906,2.396484 c 0.002977,0.0385 0.0133905,0.1135 0.0253906,0.1875 0.155,0.972 0.9999996,1.74625 2.125,2.28125 1.2459997,0.593 2.9024218,0.93945 4.7324218,0.939454 0.7476558,0 1.4448704,-0.08216 2.1152344,-0.195313 L 9.3476563,12.804688 c -0.5264851,0.07337 -1.0713466,0.124997 -1.6503906,0.125 -1.703,0 -3.2366876,-0.333797 -4.3046875,-0.841797 -0.891,-0.424 -1.3980156,-0.935016 -1.5410156,-1.416016 -0.012,-0.064 -0.029969,-0.126453 -0.042969,-0.189453 V 8.265625 c -0.016,-0.3 -0.017844,-0.5525625 0.1601562,-0.8515625 0.11,-0.215 0.2827186,-0.4134689 0.5117188,-0.6054687 -0.002,0.09 0.018344,0.1835312 0.027344,0.2695312 0.128,0.77 0.791672,1.3665313 1.6386719,1.7695312 0.943,0.4480001 2.1827812,0.7050782 3.5507812,0.7050782 0.00678,0 0.012757,-0.00194 0.019531,-0.00195 L 7.2089845,8.5410156 C 6.8539153,8.5244278 6.5033093,8.4948852 6.1679689,8.4394531 5.1448274,8.2703276 4.5483489,7.9340161 4.1601563,7.6777344 3.7719637,7.4214526 3.6521921,7.2793064 3.5625001,7.1191406 c -0.075,-0.1 -0.074031,-0.2240781 -0.082031,-0.3300781 v -2.640625 c 0.002,-0.177 0.00377,-0.12625 0.00977,-0.28125 0.057,-0.326 0.3939843,-0.7110625 1.0839844,-1.0390625 0.766,-0.364 1.8835491,-0.609875 3.1230468,-0.609375 1.2394977,5e-4 2.3600007,0.243375 3.1250007,0.609375 0.68,0.322 1.015218,0.7012969 1.074218,1.0292969 0.01,0.133 0.01358,0.3124844 0.01758,0.5214843 0.012,0.662 0.0045,1.6236958 0,2.0527344 -0.0045,0.4290387 -0.02253,0.5272694 -0.04883,0.6230469 -0.03,0.071 -0.07386,0.14475 -0.130859,0.21875 -0.06074,0.066731 -0.132407,0.11001 -0.197266,0.1679687 h 1.246094 c 0.05067,-0.1226102 0.0928,-0.2477487 0.113281,-0.3808593 0.02,-0.095 0.01449,-0.1619534 0.02149,-0.2519531 0.237851,0.2003313 0.409297,0.4080199 0.519531,0.6328124 h 1.066406 c -0.15762,-0.6346448 -0.596692,-1.1824475 -1.232422,-1.625 -0.12,-0.078 -0.236562,-0.1573281 -0.351562,-0.2363281 V 4.0859375 c -0.003,-0.136 -0.01644,-0.2355625 -0.02344,-0.3515625 -0.11,-0.79 -0.779625,-1.4005938 -1.640625,-1.8085938 C 10.311856,1.4757813 9.0657657,1.21875 7.6972657,1.21875 Z"
     style="line-height:normal;font-variant-ligatures:normal;font-variant-position:normal;font-variant-caps:normal;font-variant-numeric:normal;font-variant-alternates:normal;font-feature-settings:normal;text-indent:0;text-align:start;text-decoration:none;text-decoration-line:none;text-decoration-style:solid;text-decoration-color:#000000;text-transform:none;text-orientation:mixed;white-space:normal;shape-padding:0;isolation:auto;mix-blend-mode:normal;solid-color:#000000;solid-opacity:1;fill:#424242;fill-opacity:1" />
</svg>
