<svg xmlns="http://www.w3.org/2000/svg" width="16" height="16" fill="none">
   <path fill="#424242" fill-opacity=".25" d="M1.777 7.966c.218 1.651 3.035 2.698 5.856 2.708 2.862.01 5.784-1.041 5.982-2.708v2.663c.017.204-.015.187-.031.382-1.301 1.841-3.557 1.99-5.887 2.088-1.944-.014-4.623-.181-5.877-2.059-.012-.064.042.219-.043-.189z" />
   <path fill="#424242" fill-opacity=".25" d="M3.426 5.35v1.83c.008.106.008.23.082.33 2.407 1.93 6.178 1.828 8.412-.065a1.49 1.49 0 00.053-.32V3.924c-.625 2.272-6.566 2.393-8.18.66-.182-.197-.31-.417-.338-.539z" />
   <path d="M7.697 1.219c-1.368 0-2.61.258-3.552.707-.842.4-1.504.99-1.637 1.756-.043.148-.017.268-.03.423v1.5C1.577 6.141.915 6.844.823 7.711c-.027.13-.008.271-.011.414l.003 2.395c.004.038.014.115.026.189.155.972 1 1.746 2.125 2.281 1.246.593 2.902.94 4.732.94 1.108 0 2.14-.141 3.07-.373l-.458-.914c-.79.177-1.671.287-2.612.287-1.703 0-3.236-.334-4.304-.842-.891-.424-1.398-.935-1.541-1.416-.012-.064-.03-.127-.043-.19V8.266c-.016-.3-.018-.553.16-.852.11-.215.282-.413.511-.605-.002.09.019.183.028.27.128.77.791 1.366 1.638 1.769.943.448 2.183.705 3.551.705 1.368 0 2.613-.257 3.557-.705.853-.406 1.522-1.007 1.642-1.787.02-.095.015-.162.022-.252.355.299.575.61.639.978.044.176.019.277.035.49v1.25h1.002V8.082c.019-.139-.017-.256-.024-.377-.082-.752-.575-1.385-1.299-1.889-.12-.078-.236-.157-.351-.236V4.086c-.003-.136-.017-.236-.024-.352-.11-.79-.78-1.4-1.64-1.808-.944-.45-2.19-.707-3.559-.707zm0 1c1.24 0 2.36.243 3.125.61.68.321 1.015.7 1.074 1.028.01.133.014.313.018.522.012.662.005 1.624 0 2.053-.004.429-.022.527-.049.623-.03.07-.074.144-.13.218-.63.691-1.493.887-2.297 1.112-1.34.275-2.587.176-3.848-.069-.8-.151-1.418-.562-1.861-.96-.18-.12-.23-.306-.249-.567V4.15c.002-.178.004-.127.01-.282.057-.326.394-.71 1.084-1.039.766-.364 1.884-.61 3.123-.61z" style="line-height:normal;font-variant-ligatures:normal;font-variant-position:normal;font-variant-caps:normal;font-variant-numeric:normal;font-variant-alternates:normal;font-feature-settings:normal;text-indent:0;text-align:start;text-decoration-line:none;text-decoration-style:solid;text-decoration-color:#000;text-transform:none;text-orientation:mixed;white-space:normal;shape-padding:0;isolation:auto;mix-blend-mode:normal;solid-color:#000;solid-opacity:1" fill="#424242" />
   <path d="M10.377 10.528h4.71l-2.356 4.697z" fill="#424242" paint-order="stroke fill markers" />
</svg>