<?xml version="1.0" encoding="UTF-8" standalone="no"?>
<svg
   xmlns:dc="http://purl.org/dc/elements/1.1/"
   xmlns:cc="http://creativecommons.org/ns#"
   xmlns:rdf="http://www.w3.org/1999/02/22-rdf-syntax-ns#"
   xmlns:svg="http://www.w3.org/2000/svg"
   xmlns="http://www.w3.org/2000/svg"
   width="16"
   height="16"
   fill="none"
   version="1.1"
   id="svg8">
  <metadata
     id="metadata14">
    <rdf:RDF>
      <cc:Work
         rdf:about="">
        <dc:format>image/svg+xml</dc:format>
        <dc:type
           rdf:resource="http://purl.org/dc/dcmitype/StillImage" />
        <dc:title></dc:title>
      </cc:Work>
    </rdf:RDF>
  </metadata>
  <defs
     id="defs12" />
  <path
     fill="#424242"
     fill-opacity=".250"
     d="m 1.777,7.966 c 0.218,1.651 3.035,2.698 5.856,2.708 2.862,0.01 5.784,-1.041 5.982,-2.708 v 2.663 c 0.017,0.204 -0.015,0.187 -0.031,0.382 -1.301,1.841 -3.557,1.99 -5.887,2.088 C 5.753,13.085 3.074,12.918 1.82,11.04 1.808,10.976 1.862,11.259 1.777,10.851 Z"
     id="path2" />
  <path
     fill="#424242"
     fill-opacity=".250"
     d="M3.426 5.35v1.83c.008.106.008.23.082.33 2.407 1.93 6.178 1.828 8.412-.065a1.49 1.49 0 00.053-.32V3.924c-.625 2.272-6.566 2.393-8.18.66-.182-.197-.31-.417-.338-.539z"
     id="path4" />
  <path
     id="path6"
     d="m 7.6972656,1.21875 c -1.3685,0 -2.6107343,0.2580313 -3.5527344,0.7070312 -0.8419999,0.4000001 -1.5037187,0.9898594 -1.6367187,1.7558594 -0.043,0.148 -0.017297,0.2688281 -0.029297,0.4238282 v 1.5 c -0.903,0.5359999 -1.56424996,1.2384687 -1.65624998,2.1054687 -0.027,0.13 -0.008719,0.2710625 -0.0117187,0.4140625 l 0.003906,2.394531 c 0.0035,0.0385 0.0133906,0.115453 0.0253906,0.189453 0.155,0.972 1.00000005,1.74625 2.12500005,2.28125 1.246,0.593 2.9024218,0.939452 4.7324218,0.939454 1.108213,0 2.1398178,-0.141126 3.0703124,-0.373047 l -0.458984,-0.914063 c -0.7899624,0.177139 -1.6707544,0.287109 -2.6113284,0.28711 -1.703,0 -3.2366875,-0.333797 -4.3046875,-0.841797 -0.891,-0.424 -1.3980156,-0.935016 -1.5410156,-1.416016 -0.012,-0.064 -0.029969,-0.126453 -0.042969,-0.189453 V 8.265625 c -0.016,-0.3 -0.017844,-0.5525625 0.1601562,-0.8515625 0.11,-0.215 0.2827188,-0.4134689 0.5117188,-0.6054687 -0.002,0.09 0.018344,0.1835312 0.027344,0.2695312 0.128,0.77 0.7916719,1.3665313 1.6386719,1.7695312 0.943,0.4480001 2.1827812,0.7050782 3.5507812,0.7050782 1.368,0 2.6126404,-0.2570781 3.5566404,-0.7050782 0.853,-0.4059999 1.522578,-1.0071093 1.642578,-1.7871093 0.02,-0.095 0.01449,-0.1619532 0.02149,-0.2519531 0.355,0.299 0.574672,0.6105156 0.638672,0.9785156 0.044,0.176 0.01916,0.2772343 0.03516,0.4902344 v 1.25 H 14.59375 V 8.0820312 c 0.019,-0.1389999 -0.01644,-0.2559531 -0.02344,-0.3769531 -0.082,-0.752 -0.574828,-1.3846718 -1.298828,-1.8886719 -0.12,-0.078 -0.236562,-0.1573281 -0.351562,-0.2363281 V 4.0859375 c -0.003,-0.136 -0.01644,-0.2355625 -0.02344,-0.3515625 -0.11,-0.79 -0.779625,-1.4005938 -1.640625,-1.8085938 C 10.311859,1.4757813 9.0657656,1.21875 7.6972656,1.21875 Z m 0,1 c 1.2395,5e-4 2.3600004,0.243375 3.1250004,0.609375 0.68,0.322 1.015218,0.7012969 1.074218,1.0292969 0.01,0.133 0.01358,0.3124844 0.01758,0.5214843 0.012,0.662 0.0045,1.6236958 0,2.0527344 -0.0045,0.4290387 -0.02253,0.5272694 -0.04883,0.6230469 -0.03,0.071 -0.07386,0.14475 -0.130859,0.21875 -0.629,0.691 -1.492875,0.8863281 -2.296875,1.1113281 C 8.0986511,8.6598198 6.8506646,8.5614648 5.5898438,8.3164062 4.7906847,8.1646758 4.1719663,7.7542922 3.7285156,7.3554688 3.5482198,7.23674 3.4986899,7.0499698 3.4804688,6.7890625 v -2.640625 c 0.002,-0.177 0.00377,-0.12625 0.00977,-0.28125 0.057,-0.326 0.3939844,-0.7110625 1.0839844,-1.0390625 0.766,-0.364 1.8835468,-0.609875 3.1230468,-0.609375 z"
     style="line-height:normal;font-variant-ligatures:normal;font-variant-position:normal;font-variant-caps:normal;font-variant-numeric:normal;font-variant-alternates:normal;font-feature-settings:normal;text-indent:0;text-align:start;text-decoration:none;text-decoration-line:none;text-decoration-style:solid;text-decoration-color:#000000;text-transform:none;text-orientation:mixed;white-space:normal;shape-padding:0;isolation:auto;mix-blend-mode:normal;solid-color:#000000;solid-opacity:1;fill:#424242" />
  <path
     id="path851"
     d="m 10.376641,10.527594 h 4.710426 l -2.356485,4.697084 z"
     style="fill:#424242;fill-opacity:1;stroke:none;stroke-width:0.65644938;stroke-linecap:round;stroke-linejoin:round;stroke-miterlimit:4;stroke-dasharray:none;paint-order:stroke fill markers" />
</svg>
