<svg xmlns="http://www.w3.org/2000/svg" width="16" height="16">
   <path d="M8.531 3.027c-.28 0-.394.174-.394.43v.441H4.162c-.55 0-1 .45-1 1v8.998c0 .55.45 1 1 1h7.674a1.1 1.1 0 00.703-.298c.19-.18.277-.422.297-.702v-.957l-1 .745v.212H4.162V4.898h3.975v.998H5.162v1h2.975V7.98l1.033-.486 1.035.486V4.898h1.63v2.09l1 .75v-2.84c-.02-.28-.106-.52-.296-.7a1.1 1.1 0 00-.703-.3h-1.63v-.441c0-.306-.178-.43-.509-.43zm-3.369 4.87v1h2.5v-1zm0 2v1h2.5v-1zm0 2v1h4v-1zm9.535-1.548l-4-3v2h-2v2h2v2z" fill="#424242"/>
</svg>