<?xml version="1.0" encoding="UTF-8" standalone="no"?>
<svg
   xmlns:dc="http://purl.org/dc/elements/1.1/"
   xmlns:cc="http://creativecommons.org/ns#"
   xmlns:rdf="http://www.w3.org/1999/02/22-rdf-syntax-ns#"
   xmlns:svg="http://www.w3.org/2000/svg"
   xmlns="http://www.w3.org/2000/svg"
   width="16"
   height="16"
   viewBox="0 0 16 16"
   version="1.1"
   id="svg4">
  <metadata
     id="metadata10">
    <rdf:RDF>
      <cc:Work
         rdf:about="">
        <dc:format>image/svg+xml</dc:format>
        <dc:type
           rdf:resource="http://purl.org/dc/dcmitype/StillImage" />
        <dc:title></dc:title>
      </cc:Work>
    </rdf:RDF>
  </metadata>
  <defs
     id="defs8" />
  <path
     d="m 3,4.5 h 8 c 0,-0.55 -0.45,-1 -1,-1 H 9 c -0.55,0 -1,-0.45 -1,-1 0,-0.55 -0.45,-1 -1,-1 -0.55,0 -1,0.45 -1,1 0,0.55 -0.45,1 -1,1 H 4 c -0.55,0 -1,0.45 -1,1 z m 9,8 h 1 v 2 c -0.02,0.28 -0.11,0.52 -0.3,0.7 -0.19,0.18 -0.42,0.28 -0.7,0.3 H 2 c -0.55,0 -1,-0.45 -1,-1 v -11 c 0,-0.55 0.45,-1 1,-1 h 3 c 0,-1.11 0.89,-2 2,-2 1.11,0 2,0.89 2,2 h 3 c 0.55,0 1,0.45 1,1 v 5 h -1 v -3 H 2 v 9 h 10 z m -9,-1 h 2.5 v -1 H 3 Z m 2.5,-3 H 3 v 1 h 2.5 z m 4.5,1 v -2 l -3,3 3,3 v -2 h 5 v -2 z M 8,6.5 H 3 v 1 h 5 z m -5,6 h 4 v 1 H 3 Z"
     fill="#424242" />
</svg>
