<?xml version="1.0" encoding="UTF-8" standalone="no"?>
<svg
   xmlns:dc="http://purl.org/dc/elements/1.1/"
   xmlns:cc="http://creativecommons.org/ns#"
   xmlns:rdf="http://www.w3.org/1999/02/22-rdf-syntax-ns#"
   xmlns:svg="http://www.w3.org/2000/svg"
   xmlns="http://www.w3.org/2000/svg"
   xmlns:sodipodi="http://sodipodi.sourceforge.net/DTD/sodipodi-0.dtd"
   xmlns:inkscape="http://www.inkscape.org/namespaces/inkscape"
   id="svg8"
   version="1.1"
   height="16"
   width="16"
   sodipodi:docname="connect2.svg"
   inkscape:version="0.92.3 (2405546, 2018-03-11)">
  <sodipodi:namedview
     pagecolor="#ffffff"
     bordercolor="#666666"
     borderopacity="1"
     objecttolerance="10"
     gridtolerance="10"
     guidetolerance="10"
     inkscape:pageopacity="0"
     inkscape:pageshadow="2"
     inkscape:window-width="1920"
     inkscape:window-height="1052"
     id="namedview7"
     showgrid="false"
     inkscape:zoom="41.7193"
     inkscape:cx="9.3117923"
     inkscape:cy="8.0508621"
     inkscape:window-x="2560"
     inkscape:window-y="0"
     inkscape:window-maximized="1"
     inkscape:current-layer="svg8" />
  <metadata
     id="metadata14">
    <rdf:RDF>
      <cc:Work
         rdf:about="">
        <dc:format>image/svg+xml</dc:format>
        <dc:type
           rdf:resource="http://purl.org/dc/dcmitype/StillImage" />
        <dc:title />
      </cc:Work>
    </rdf:RDF>
  </metadata>
  <defs
     id="defs12" />
  <style
     id="style2"
     type="text/css">.icon-canvas-transparent{opacity:0;fill:#F6F6F6;} .icon-vs-out{opacity:0;fill:#F6F6F6;} .icon-vs-fg{fill:#F0EFF1;} .icon-folder{fill:#656565;}</style>
  <path
     inkscape:connector-curvature="0"
     style="fill:#666666;fill-opacity:1;stroke:none;stroke-width:0.00114699;stroke-miterlimit:4;stroke-dasharray:none"
     d="M 14.142578,1.269531 11.197266,4.2148436 C 10.915284,4.0888764 10.391848,3.8321773 10.046875,3.8457029 9.3566826,3.872766 8.7795155,4.371838 8.0683594,4.910156 7.8543106,5.0814965 7.6968571,5.2113482 7.53125,5.3769529 7.4277347,5.4804671 7.4071253,5.6258814 7.484375,5.7031248 l 0.2421875,0.2421875 0.080078,0.080078 0.00195,0.00195 h 0.00195 c 0.087686,0.085165 0.2386923,0.075324 0.3652343,-0.015625 0.025827,-0.020352 0.046074,-0.032853 0.070313,-0.052734 C 8.3752773,5.8612422 8.5356353,5.8481489 8.625,5.9374998 l 0.080078,0.080078 C 8.789805,6.1023028 8.783404,6.2498189 8.699218,6.3749997 8.665047,6.4169657 8.640222,6.4517717 8.611327,6.4941403 8.537229,6.6156607 8.536132,6.7528875 8.617187,6.8339841 l 0.080078,0.082031 0.6269532,0.6269532 0.042969,0.042969 0.037109,0.037109 c 0.076328,0.076328 0.204284,0.079296 0.3203125,0.017578 0.055114,-0.029929 0.095287,-0.067201 0.1445312,-0.1035156 0.1240791,-0.080952 0.2679741,-0.085501 0.3515621,-0.00195 l 0.08008,0.080078 c 0.08667,0.086674 0.08,0.2402156 -0.0098,0.3671875 -0.02357,0.030114 -0.04368,0.054915 -0.06641,0.083984 -0.07192,0.1014375 -0.09176,0.2190971 -0.05273,0.3066407 0.01742,0.036913 0.03912,0.056688 0.06641,0.083984 l 0.05664,0.054688 0.242187,0.2441406 c 0.07724,0.077242 0.222658,0.05664 0.326172,-0.046875 l 0.0332,-0.035156 c 0.163943,-0.1617736 0.31642,-0.3504955 0.441407,-0.515625 0.579044,-0.7697057 1.078627,-1.4140878 1.05664,-2.1425781 -0.0084,-0.2782572 -0.265054,-0.7416456 -0.36914,-0.9746094 L 14.96875,2.097656 Z M 6.3105469,6.6796873 C 6.2515687,6.6882438 6.1884753,6.7177788 6.1367188,6.769531 5.9711139,6.9351392 5.8432155,7.0945447 5.671875,7.3085936 5.1335541,8.0197486 4.6325307,8.5949652 4.6054688,9.285156 4.5919242,9.6301303 4.8486427,10.155517 4.9746094,10.4375 l -3.0566406,3.054688 0.828125,0.828124 3.0566406,-3.054687 c 0.2329665,0.104092 0.6944018,0.360742 0.9726562,0.369141 0.7284932,0.02199 1.3748245,-0.47955 2.1445313,-1.058594 0.1651316,-0.124989 0.3538528,-0.275519 0.515625,-0.439453 l 0.033203,-0.03516 C 9.5722657,9.9980428 9.5928697,9.8526336 9.515625,9.7753904 L 9.0117188,9.269531 9.2636719,9.0175779 C 9.3989065,8.8823444 9.4251382,8.6927118 9.3242188,8.5917967 L 9.2441406,8.5117186 C 9.1432254,8.4108033 8.9535941,8.4389905 8.8183594,8.5742186 L 8.5664062,8.8261717 7.4140625,7.6738279 7.6660156,7.4199217 C 7.8012502,7.2846882 7.8294231,7.0950534 7.7285156,6.9941404 L 7.6484375,6.9140623 C 7.5475223,6.8131471 7.3559366,6.8413343 7.2207031,6.9765623 L 6.96875,7.2285154 6.4628906,6.722656 C 6.4242696,6.684035 6.369525,6.6711308 6.3105469,6.6796873 Z"
     id="path1019" />
</svg>
