<svg xmlns="http://www.w3.org/2000/svg" fill="none" height="16" width="16">
   <path d="M2.875 1.21h10.566v8.482H2.875z" fill="#7c2504"/>
   <path d="M11.093 1.21c-1.14.782-1.827 2.105-1.828 3.523 0 1.747 1.023 3.246 2.482 3.89v6.021h1.694V1.21zm-8.218 0V14.88h1.713V9.009a4.073 4.225 0 003.167-4.115A4.073 4.225 0 005.673 1.21z" fill="#b04620"/>
   <path d="M6.35 6.339c.12.188.21.425.174.645-.245.565-.76 1.076-1.191 1.44-.73.668-1.442.894-2.433.993V4.002C4 4.79 5.58 5.269 6.35 6.339z" fill="#c96b4b"/>
   <path d="M4.332 8.389c-.158 0-.79.316-.79.316l-.65.561h-.07l-.034 3.3.333.28.562-.105c.37-.073.72-.394 1.106-.368 0 0-.368.375-.457.614-.177.595-.124 1.405.334 1.79.25.201.612.202.93.246 1.464-.037 4.222.01 5.74.035.626-.22.74-.879.841-1.422.07-.409.049-.903-.193-1.21-.215-.265-.877-.527-.877-.527s1.117.332 1.68.482c.2.054.601.15.601.15l.123-3.844-1.035-.298-1.176.07c-1.934.446-3.108.225-4.914.245l-1.053-.28s-.843-.035-1-.035z" fill="#e4dcc8"/>
   <path d="M4.708 2.514c-.947.022-1.475.03-1.808 1.194-.061.43.13.923.439 1.228.415.386 1.612.462 2.264.738.249.037.546.14.755 0 .277-.202.345-.987.473-1.37.003-.511-.243-1.192-.649-1.597-.477-.294-.98-.212-1.474-.193zm7.065.1c-.2.002-.405.024-.613.036-.518-.066-.748.086-.983.526-.343.738-.604 2.514.21 2.878.915.34 1.406-.481 2.001-.824.271-.149.585-.198.878-.299.049-1.108.161-1.483-.51-2.018-.322-.249-.648-.301-.983-.298z" fill="#f9f2b3"/>
   <path d="M2.49.713V10l-1.516.143a.334.334 0 10.063.666l1.453-.138v.59l-1.483.288a.334.334 0 10.127.656l1.356-.263v3.349H13.88v-4.025h1.032a.334.334 0 100-.67h-1.032v-.64l1.054-.108a.334.334 0 10-.067-.665l-.987.101V.713H2.49zm.905.905h9.579v2.411a1.607 1.607 0 00-.088-.224c-.315-.63-.738-.878-1.277-.857-.636.001-1.105.415-1.342 1.009-.152.398-.113.704-.09 1.082.016.24.4.593.692.537.453-.088 1.18-.482 1.757-.765.18-.088.289-.19.348-.303v4.869l-2.427.246a.334.334 0 10.067.665l2.36-.24v.549h-2.405a.334.334 0 100 .669h2.405v3.12H3.395v-.677c.117.087.348.15.436.11.33-.153.357-.46.749-.83.182-.171.323-.42.599-.562.246-.126.727-.052 1.452-.207 1.346-.232 2.858-.122 3.97.085.707.134.891.457 1.033.776.11.248.07.353.247.558.137.16.505.353.716.169.168-.147 0-.502.182-.682.204-.204.28-.442.007-.745-.902-.485-1.542-.586-2.66-.737-.199-.02-.316-.245-.461-.38-.345-.32-.675-.483-1.103-.532.016-.055.037-.204.068-.244.695-.897 1.659-1.467 2.392-1.634.273-.062.157-.392.093-.431-.145-.088-.331-.093-.5-.093-.319.001-.633.08-.95.098-.952.054-1.783.082-2.651.006-.287-.025-.576-.058-.864-.046-.463.02-.554.254-.43.598.045.128.579.135.84.272.423.22.632.51 1.103 1.097.058.071.126.137.167.218.023.046.023.1.03.15-.514.002-.712.127-1.025.46-.363.38-.283.403-1.243.553-.22.034-.458.033-.678.069-.413.067-1.056.097-1.375.472-.062.073-.1.14-.143.208v-.719l2.476-.48a.334.334 0 10-.128-.657l-2.348.456v-.5l2.445-.231a.334.334 0 10-.063-.666l-2.382.225v-5.62c.2.094.516.16.657.221.442.194.737.484 1.025.634.18.094.866.282 1.016.147.222-.2.262-1.117.074-1.538a2.12 2.12 0 00-.651-.854c-.09-.072-.43-.153-.68-.148-.25.004-.556.053-.711.091-.315.079-.473.259-.683.505-.012.012-.031.05-.047.076z" fill="#1c0e01"/>
   <path d="M4.487 3.186c-.11.182-.05.382.062.533.094.125.222.226.36.298.222.11.36.162.484-.062.151-.264.091-.52-.112-.72-.23-.204-.581-.277-.794-.05zm7 .26c-.326.03-.478.33-.472.633a.91.91 0 00.162.385c.247-.037.604-.197.769-.36.093-.133.21-.369.149-.509-.152-.191-.403-.18-.608-.149z" fill="#fff"/>
</svg>
