<svg xmlns="http://www.w3.org/2000/svg" height="16" width="16">
   <path d="M7.295.93c-3.367 0-3.156 1.46-3.156 1.46l.004 1.512h3.212v.455H2.867S.713 4.113.713 7.51c0 3.397 1.879 3.275 1.879 3.275h1.123V9.21S3.654 7.33 5.565 7.33h3.187s1.789.029 1.789-1.73V2.69S10.813.93 7.295.93zM5.523 1.947a.578.578 0 11.001 1.156.578.578 0 010-1.156zm5.448 2.32v1.577s-.002.095-.018.23a.5.5 0 01.248-.07.5.5 0 01.361.146l2.334 2.334c.045-.28.077-.582.077-.941 0-3.397-1.88-3.275-1.88-3.275h-1.122zM9.31 7.7c-.066.006-.118.024-.19.024H5.934s-1.79-.029-1.79 1.73v2.908s-.272 1.762 3.247 1.762c1.053 0 1.739-.147 2.207-.344l-.254-.254a.5.5 0 01-.14-.427c-.015 0-.027.007-.042.007a.578.578 0 110-1.156.57.57 0 01.56.49l.823-.82-.002-.469H7.33v-.455h4.139l.101-.101-2.226-2.225a.5.5 0 01-.033-.67z" style="marker:none" color="#000" overflow="visible" fill="#424242"/><path d="M11.209 6.504L9.697 8.016l2.58 2.578-2.58 2.578 1.512 1.512 3.853-3.854a.335.335 0 00.006-.467z" fill="#424242" paint-order="stroke fill markers"/>
</svg>