<svg xmlns="http://www.w3.org/2000/svg" width="16" height="16">
   <path fill="#424242" d="M1.096 5.896v9h2.453a.5.5 0 01-.07-.056l-1.512-1.512a.5.5 0 010-.707l.377-.377V8.55l-.377-.377a.5.5 0 010-.707l1.512-1.512a.5.5 0 01.068-.057zm3.02 0a.5.5 0 01.07.057l1.199 1.2h5.23l1.2-1.2a.5.5 0 01.066-.057zm8.335 0a.5.5 0 01.07.057l1.512 1.512a.5.5 0 010 .707l-.377.377v3.695l.377.377a.5.5 0 010 .707l-1.512 1.512a.5.5 0 01-.068.056h2.451v-9zM5.387 13.64l-1.201 1.2a.5.5 0 01-.069.057h7.768a.5.5 0 01-.07-.056l-1.202-1.201z"/><path d="M3.831 6.306L2.32 7.818l2.58 2.578-2.58 2.578 1.512 1.512 3.853-3.854a.335.335 0 00.006-.467zm8.338 0l1.512 1.512-2.58 2.578 2.58 2.578-1.512 1.512-3.853-3.854a.335.335 0 01-.006-.467z" fill="#424242" paint-order="stroke fill markers"/>
</svg>