<?xml version="1.0" encoding="UTF-8" standalone="no"?>
<svg
   xmlns:dc="http://purl.org/dc/elements/1.1/"
   xmlns:cc="http://creativecommons.org/ns#"
   xmlns:rdf="http://www.w3.org/1999/02/22-rdf-syntax-ns#"
   xmlns:svg="http://www.w3.org/2000/svg"
   xmlns="http://www.w3.org/2000/svg"
   width="16"
   height="16"
   viewBox="0 0 16 16"
   version="1.1"
   id="svg4">
  <metadata
     id="metadata10">
    <rdf:RDF>
      <cc:Work
         rdf:about="">
        <dc:format>image/svg+xml</dc:format>
        <dc:type
           rdf:resource="http://purl.org/dc/dcmitype/StillImage" />
        <dc:title></dc:title>
      </cc:Work>
    </rdf:RDF>
  </metadata>
  <defs
     id="defs8" />
  <path
     d="M 11.490234,5.9042969 A 0.09588847,0.09588847 0 0 0 11.404297,6 V 7 A 0.09588847,0.09588847 0 0 0 11.5,7.0957031 h 1 c 0.461009,0 0.939064,0.2858452 1.300781,0.734375 0.361718,0.4485299 0.603516,1.0548904 0.603516,1.6699219 0,0.614532 -0.247009,1.221157 -0.611328,1.669922 -0.36432,0.448765 -0.842755,0.734375 -1.292969,0.734375 h -4 c -0.4502135,0 -0.928649,-0.28561 -1.2929688,-0.734375 C 6.8427115,10.721157 6.5957031,10.114532 6.5957031,9.5 c 0,-0.7976553 0.4091966,-1.5840816 0.9628907,-2.0136719 a 0.09588847,0.09588847 0 0 0 0.037109,-0.076172 V 6.25 A 0.09588847,0.09588847 0 0 0 7.4589844,6.1640625 C 6.3319817,6.7120546 5.4042969,8.0487471 5.4042969,9.5 c 0,0.932369 0.3977779,1.827536 0.9804687,2.492188 C 6.9674564,12.656839 7.7377505,13.095703 8.5,13.095703 h 4 c 0.762249,0 1.532544,-0.438864 2.115234,-1.103515 0.582691,-0.664652 0.980469,-1.559819 0.980469,-2.492188 0,-0.9314859 -0.384301,-1.8271335 -0.960937,-2.4921875 C 14.058129,6.3427585 13.286008,5.9042969 12.5,5.9042969 h -1 a 0.09588847,0.09588847 0 0 0 -0.0098,0 z m -7.990234,-3 c -0.7622495,0 -1.5325436,0.4388639 -2.1152344,1.1035156 C 0.8020748,4.6724642 0.40429688,5.5676313 0.40429688,6.5 c 0,0.9314859 0.38430109,1.8271335 0.96093752,2.4921875 C 1.9418708,9.6572415 2.7139922,10.095703 3.5,10.095703 h 1 A 0.09588847,0.09588847 0 0 0 4.5957031,10 V 9 A 0.09588847,0.09588847 0 0 0 4.5,8.9042969 h -1 c -0.4610093,0 -0.9390636,-0.2858452 -1.3007812,-0.734375 C 1.8375011,7.721392 1.5957031,7.1150315 1.5957031,6.5 c 0,-0.6145322 0.2470084,-1.2211572 0.6113281,-1.6699219 C 2.571351,4.3813134 3.0497865,4.0957031 3.5,4.0957031 h 4 c 0.4502135,0 0.928649,0.2856103 1.2929688,0.734375 C 9.1572885,5.2788428 9.4042969,5.8854678 9.4042969,6.5 c 0,0.7872609 -0.4097402,1.5845034 -0.9628907,2.0136719 a 0.09588847,0.09588847 0 0 0 -0.037109,0.076172 V 9.75 A 0.09588847,0.09588847 0 0 0 8.5410159,9.835937 C 9.6680183,9.2879454 10.595703,7.9512529 10.595703,6.5 10.595703,5.5676313 10.197925,4.6724642 9.6152344,4.0078125 9.0325436,3.3431608 8.2622495,2.9042969 7.5,2.9042969 Z"
     fill="#424242" />
</svg>
