<?xml version="1.0" encoding="UTF-8" standalone="no"?>
<svg
   height="16"
   width="16"
   version="1.1"
   id="svg799"
   xmlns="http://www.w3.org/2000/svg"
   xmlns:svg="http://www.w3.org/2000/svg">
  <defs
     id="defs803" />
  <path
     id="path797"
     style="fill:#424242;fill-opacity:1"
     d="M 5.925,1.305 V 2.393 Q 5.436,2.143 4.911,2.018 4.385,1.893 3.822,1.893 q -0.857,0 -1.289,0.263 -0.425,0.263 -0.425,0.788 0,0.4 0.306,0.632 0.307,0.225 1.233,0.432 L 4.041,4.095 Q 5.268,4.358 5.781,4.84 6.3,5.316 6.3,6.173 6.3,7.149 5.524,7.718 4.754,8.288 3.403,8.288 2.84,8.288 2.227,8.175 1.62,8.07 0.944,7.85 V 6.66 q 0.638,0.332 1.258,0.501 0.619,0.163 1.226,0.163 0.813,0 1.251,-0.275 Q 5.117,6.767 5.117,6.26 5.117,5.791 4.798,5.54 4.485,5.29 3.415,5.059 L 3.015,4.965 Q 1.945,4.74 1.469,4.277 0.994,3.807 0.994,2.994 0.994,2.006 1.694,1.467 2.397,0.93 3.685,0.93 4.324,0.93 4.887,1.024 5.45,1.118 5.926,1.306 Z M 2.763,12.136 h 11.66 v 2.508 H 2.764 Z M 5.305,8.542 h 9.119 v 2.509 H 5.305 Z M 7.831,4.949 h 6.593 v 2.51 H 7.83 Z m 2.394,-3.593 h 4.199 v 2.508 h -4.199 z" />
</svg>
